<?xml version="1.0" standalone="no"?>
   <!DOCTYPE svg PUBLIC "-//W3C//DTD SVG 1.1//EN" 
   "http://www.w3.org/Graphics/SVG/1.1/DTD/svg11.dtd"><svg id="svg" version="1.1" width="1305" height="1884" xmlns="http://www.w3.org/2000/svg"><path d="M775.500 159.571 C 772.200 161.435,765.684 166.119,761.020 169.980 C 753.968 175.818,749.110 177.000,732.174 177.000 C 702.887 177.000,696.248 183.159,688.511 217.500 L 686.484 226.500 681.855 217.500 C 674.423 203.049,657.231 183.274,647.910 178.453 C 637.944 173.300,616.034 172.615,604.267 177.088 C 598.196 179.397,591.986 178.968,579.681 175.391 C 569.723 172.496,558.856 171.342,552.181 172.469 C 534.326 175.486,510.887 190.752,499.259 206.936 C 493.443 215.033,483.692 224.097,477.592 227.079 C 468.096 231.720,465.521 235.307,459.699 252.000 C 451.607 275.201,452.488 293.598,463.579 333.000 C 478.122 384.666,492.673 421.721,506.453 442.180 C 511.017 448.956,515.887 456.349,517.275 458.610 C 518.663 460.870,512.187 456.520,502.883 448.941 C 465.534 418.520,405.522 387.138,358.500 373.439 C 316.290 361.141,307.820 362.786,288.305 387.069 C 283.000 393.670,272.071 402.410,264.018 406.491 C 223.230 427.160,199.697 476.535,214.149 511.123 C 216.817 517.508,219.000 523.765,219.000 525.026 C 219.000 526.287,213.036 528.213,205.748 529.306 C 189.463 531.748,170.654 544.903,164.146 558.401 C 161.468 563.956,150.267 577.275,139.254 588.000 C 111.128 615.391,104.845 633.457,115.991 654.899 C 118.735 660.180,121.911 674.974,123.048 687.775 C 124.443 703.487,126.829 712.943,130.390 716.878 C 135.440 722.458,135.391 723.057,129.257 730.855 C 124.283 737.178,122.944 742.753,123.275 755.751 C 123.610 768.858,122.003 775.436,115.888 786.000 C 106.469 802.270,105.963 812.601,114.080 822.920 C 123.667 835.109,129.000 850.590,129.000 866.236 C 129.000 884.333,133.636 890.965,154.533 902.758 C 165.840 909.139,172.758 915.484,176.138 922.572 C 180.876 932.507,180.800 933.880,174.525 951.749 C 167.107 972.870,166.439 981.453,171.476 990.947 C 185.094 1016.619,239.161 1021.708,270.301 1000.250 C 279.353 994.012,282.420 993.308,289.246 995.903 C 299.389 999.760,316.470 999.880,329.350 996.186 C 334.746 994.639,350.262 984.744,363.830 974.198 C 451.636 905.948,567.146 842.921,636.940 825.176 C 740.427 798.865,822.543 837.449,872.704 935.956 C 904.921 999.224,917.998 1059.565,918.226 1146.000 C 918.514 1255.810,894.578 1357.500,845.514 1454.903 C 815.757 1513.979,790.301 1549.885,748.595 1591.611 C 713.080 1627.144,684.420 1648.170,664.755 1653.120 C 641.516 1658.970,639.076 1661.084,628.322 1684.683 C 616.307 1711.048,615.969 1713.969,624.000 1722.000 C 632.354 1730.354,676.599 1730.548,694.736 1722.311 C 707.842 1716.358,719.057 1704.300,721.855 1693.154 C 722.803 1689.375,731.039 1680.651,740.157 1673.767 C 764.166 1655.640,814.458 1604.547,837.374 1575.000 C 891.996 1504.576,930.286 1426.383,952.397 1340.111 C 968.365 1277.810,973.142 1237.726,973.030 1167.000 C 972.882 1074.068,960.392 1003.072,928.351 913.041 C 909.238 859.336,891.822 796.497,887.916 767.147 C 881.558 719.369,896.363 662.882,927.408 616.465 C 968.146 555.557,1072.400 482.193,1144.500 463.696 C 1162.819 458.996,1165.510 456.822,1188.750 427.932 C 1199.382 414.715,1199.315 402.233,1188.499 381.293 C 1182.875 370.406,1174.772 361.032,1163.813 352.733 C 1153.516 344.935,1145.135 335.473,1141.088 327.074 C 1134.563 313.537,1120.370 303.000,1108.659 303.000 C 1105.396 303.000,1099.975 299.555,1096.613 295.345 C 1092.822 290.597,1085.373 286.546,1077.000 284.677 C 1057.466 280.318,1051.167 275.062,1045.681 258.544 C 1042.999 250.469,1037.811 241.052,1034.152 237.617 C 1022.105 226.308,1001.790 219.136,981.601 219.066 C 963.411 219.002,945.000 213.010,945.000 207.153 C 945.000 205.672,941.544 200.353,937.319 195.332 C 926.041 181.929,912.517 180.324,893.593 190.142 C 885.262 194.464,878.098 198.000,877.672 198.000 C 877.245 198.000,872.698 191.245,867.566 182.989 C 855.709 163.916,847.157 159.668,831.210 164.931 C 820.569 168.443,818.215 168.197,807.116 162.411 C 793.462 155.295,784.498 154.489,775.500 159.571 M799.791 175.967 C 806.785 180.549,821.055 181.781,839.803 179.420 C 845.717 178.675,848.830 181.267,856.169 193.048 L 865.232 207.596 856.920 221.548 C 770.852 366.007,754.326 566.969,816.608 711.749 C 826.117 733.854,825.942 726.942,816.395 703.338 C 766.402 579.735,775.138 408.369,838.267 274.341 C 854.873 239.086,871.672 213.000,877.771 213.000 C 880.435 213.000,888.987 209.418,896.775 205.041 C 914.553 195.047,923.863 196.752,930.787 211.271 C 933.529 217.023,939.980 223.904,945.121 226.563 C 954.066 231.188,954.261 231.679,949.647 237.948 C 907.414 295.343,870.646 378.582,849.355 465.000 C 826.489 557.812,821.491 660.586,837.419 710.451 C 842.777 727.225,843.066 719.362,837.789 700.372 C 830.747 675.029,830.897 592.030,838.066 547.500 C 856.777 431.271,898.907 319.939,949.797 252.240 L 963.965 233.393 985.511 234.481 C 1013.633 235.901,1025.221 244.044,1034.338 268.792 L 1040.698 286.058 1022.509 305.502 C 935.277 398.754,862.448 536.394,847.126 636.963 C 844.446 654.551,843.212 674.911,844.214 684.976 C 847.022 713.159,850.587 712.868,849.509 684.544 C 845.778 586.455,924.994 421.104,1028.055 311.853 L 1046.942 291.832 1065.287 296.854 C 1094.393 304.821,1094.006 306.967,1056.747 344.142 C 997.968 402.788,944.114 476.137,906.288 549.064 C 874.754 609.859,857.831 658.551,858.348 687.000 C 858.553 698.268,859.242 696.531,862.514 676.500 C 876.654 589.943,956.180 457.391,1052.858 359.239 C 1088.879 322.669,1094.631 317.979,1103.447 317.989 C 1117.349 318.004,1124.184 322.456,1126.501 333.003 C 1127.749 338.686,1134.414 347.280,1144.404 356.088 L 1160.320 370.120 1129.480 385.579 C 1028.281 436.304,937.504 525.778,888.447 623.149 C 877.838 644.206,863.938 687.285,864.165 698.405 C 864.257 702.892,866.827 696.976,869.933 685.132 C 898.652 575.593,1004.957 456.866,1130.771 393.815 L 1168.056 375.130 1174.934 386.315 C 1183.372 400.036,1183.849 411.397,1176.274 418.252 C 1173.125 421.102,1168.950 427.291,1166.997 432.006 C 1163.028 441.588,1155.402 445.705,1120.352 457.183 C 1033.135 485.747,933.816 565.529,898.895 635.078 C 876.281 680.117,867.299 731.839,874.508 775.519 C 879.354 804.889,898.425 871.896,917.910 928.016 C 946.780 1011.168,958.145 1079.162,958.105 1168.500 C 958.075 1235.757,954.033 1272.532,940.562 1328.133 C 910.043 1454.100,837.119 1573.607,743.144 1651.661 C 725.185 1666.577,712.872 1679.471,708.000 1688.464 C 698.465 1706.064,687.792 1711.885,661.318 1713.924 C 631.592 1716.214,630.173 1714.710,640.217 1691.550 C 649.575 1669.974,651.593 1668.110,665.666 1668.046 C 679.699 1667.983,718.961 1641.405,753.313 1608.715 C 845.754 1520.745,912.395 1374.510,930.094 1220.789 C 934.809 1179.839,932.382 1084.783,925.713 1049.215 C 904.736 937.329,852.240 854.132,781.500 820.661 C 755.637 808.424,738.171 804.109,707.679 802.423 C 661.425 799.866,613.519 812.440,546.037 844.849 C 478.079 877.487,420.897 912.670,362.011 958.078 C 330.940 982.037,319.917 986.414,300.582 982.469 C 281.524 978.581,273.471 979.858,260.544 988.818 C 249.384 996.553,245.504 997.500,224.980 997.500 C 184.623 997.500,177.556 988.528,189.337 952.244 C 196.293 930.823,197.108 929.760,217.500 915.519 C 265.251 882.171,355.050 838.415,418.802 817.432 C 523.051 783.120,618.509 774.123,708.000 790.175 C 730.275 794.171,751.200 798.260,754.500 799.264 C 757.800 800.267,755.997 798.992,750.494 796.431 C 741.123 792.070,712.363 786.097,670.500 779.820 C 639.559 775.180,577.268 776.620,534.081 782.974 C 429.891 798.302,306.609 846.391,218.541 906.059 L 192.581 923.646 188.974 914.938 C 185.189 905.800,173.155 895.317,156.750 886.868 C 151.388 884.106,147.000 880.841,147.000 879.613 C 147.000 878.384,160.838 869.757,177.750 860.442 C 268.891 810.239,346.820 781.257,437.692 763.767 C 496.985 752.356,538.236 748.911,590.659 750.992 C 661.372 753.801,712.891 766.167,761.661 792.037 C 774.222 798.701,781.125 801.458,777.000 798.164 C 763.673 787.521,736.846 774.503,709.350 765.336 C 564.724 717.116,341.344 754.807,169.451 856.433 C 156.830 863.895,146.129 870.000,145.670 870.000 C 145.211 870.000,144.047 863.342,143.084 855.205 C 141.492 841.769,135.136 826.445,125.219 812.134 C 122.111 807.650,122.855 804.324,129.750 791.883 C 136.174 780.292,138.000 773.021,138.000 759.036 C 138.000 741.256,138.125 740.997,150.364 733.270 C 176.986 716.464,280.135 701.991,373.138 702.012 C 514.543 702.044,650.509 726.728,736.500 767.978 C 753.000 775.893,772.782 787.911,780.460 794.685 C 796.023 808.413,803.011 811.229,791.773 799.242 C 760.363 765.739,672.148 730.536,574.745 712.635 C 501.223 699.122,445.190 695.150,352.500 696.879 C 268.239 698.451,241.809 701.074,184.037 713.603 L 158.585 719.122 149.042 712.706 C 140.236 706.785,139.364 704.677,137.743 685.395 C 136.776 673.903,133.739 659.273,130.993 652.884 C 121.608 631.049,126.805 616.001,150.230 597.176 L 162.721 587.138 191.611 588.944 C 310.089 596.351,479.029 635.683,606.000 685.419 C 675.375 712.594,763.162 759.765,792.817 785.803 C 806.291 797.633,807.191 795.553,795.090 780.548 C 790.189 774.472,777.702 758.031,767.340 744.013 C 675.291 619.487,478.165 485.789,304.705 430.236 C 270.035 419.132,269.188 418.659,277.750 415.165 C 282.612 413.181,292.312 404.772,299.306 396.478 C 306.300 388.183,314.616 380.574,317.787 379.568 C 325.542 377.106,389.425 398.644,420.566 414.219 C 452.558 430.219,481.775 449.581,502.474 468.498 C 511.492 476.740,522.205 484.388,526.280 485.492 C 533.506 487.450,542.518 495.806,644.869 595.441 C 686.063 635.542,681.492 630.295,617.267 563.758 C 554.726 498.965,540.607 482.828,541.953 477.680 C 543.114 473.241,538.680 463.882,527.145 446.422 C 507.754 417.071,496.567 392.130,481.651 345.000 C 468.747 304.229,465.586 278.838,471.003 259.490 C 474.272 247.812,482.932 237.000,489.015 237.000 C 489.939 237.000,490.995 244.088,491.362 252.750 C 494.662 330.739,583.221 496.508,696.188 636.150 C 724.049 670.590,797.432 753.000,800.239 753.000 C 802.367 753.000,796.735 746.140,769.455 715.503 C 631.790 560.900,514.908 363.859,500.832 262.655 C 497.867 241.340,498.117 238.603,504.088 227.033 C 513.310 209.163,521.394 201.199,538.500 193.132 C 555.590 185.073,560.219 184.626,576.402 189.475 L 588.000 192.950 588.018 217.225 C 588.092 319.899,647.668 496.459,730.338 639.011 C 753.859 679.569,787.310 730.601,792.460 733.784 C 795.370 735.583,793.863 733.094,767.766 693.000 C 688.982 571.960,619.952 399.723,601.241 277.500 C 596.266 245.000,595.664 196.180,600.204 193.374 C 601.966 192.285,611.478 190.662,621.342 189.768 C 638.077 188.250,639.886 188.722,648.406 196.821 C 672.594 219.816,680.595 248.408,682.316 318.000 C 685.237 436.163,715.105 552.805,772.578 670.500 C 789.104 704.341,819.473 756.972,827.106 765.000 C 829.459 767.475,823.766 756.675,814.455 741.000 C 737.022 610.654,690.000 449.690,690.000 314.975 C 690.000 285.210,691.376 266.790,694.272 257.784 C 696.621 250.478,700.739 234.147,703.422 221.492 C 706.106 208.838,709.921 197.176,711.901 195.576 C 713.880 193.977,725.027 192.151,736.672 191.519 C 754.828 190.533,759.720 188.990,771.013 180.685 C 786.065 169.615,789.290 169.086,799.791 175.967 M316.052 441.338 C 494.049 500.771,681.974 631.633,778.698 763.500 L 787.500 775.500 769.500 760.187 C 689.090 691.779,548.127 618.185,410.410 572.712 C 369.364 559.159,293.372 540.437,262.932 536.378 C 248.320 534.429,236.021 531.410,235.600 529.667 C 235.180 527.925,232.616 519.750,229.903 511.500 C 220.570 483.120,225.549 460.251,246.173 436.761 C 255.366 426.291,257.041 425.560,267.870 427.291 C 274.323 428.323,296.005 434.644,316.052 441.338 M267.000 544.604 C 410.835 567.715,601.467 644.869,720.750 728.248 C 743.354 744.048,753.809 754.052,734.250 741.165 C 685.464 709.023,559.555 658.452,457.500 630.009 C 369.492 605.481,237.112 582.000,186.840 582.000 C 169.851 582.000,168.566 580.410,175.193 567.594 C 182.031 554.370,191.197 548.091,209.360 544.187 C 232.161 539.286,233.990 539.299,267.000 544.604 " stroke="none" fill="black" fill-rule="evenodd"/></svg>