<?xml version="1.0" encoding="UTF-8" standalone="no"?>
<svg 
  version="1.1" 
  xmlns="http://www.w3.org/2000/svg" 
  xmlns:xlink="http://www.w3.org/1999/xlink" 
  xmlns:svg="http://www.w3.org/2000/svg"
  xmlns:rdf="http://www.w3.org/1999/02/22-rdf-syntax-ns#"
  xmlns:cc="http://creativecommons.org/ns#"
  xmlns:dc="http://purl.org/dc/elements/1.1/"
  viewBox="0 0 768 768"
  width="768"
  height="768"
>
<style>svg {background-color: white; }</style>"
<metadata id="metadata1">
Created by https://svgstud.io and licensed under CC-BY-SA 4.0 license. Please attribute https://svgstud.io
</metadata>
<metadata id="prompt">
fancy rat drinking tea
</metadata>
<metadata id="version">
7
</metadata>
<metadata id="metadata2">
<rdf:RDF>
<cc:Work
    rdf:about="">
    <cc:license
    rdf:resource="http://creativecommons.org/licenses/by-sa/4.0/" />
    <dc:creator>
        <cc:Agent>
            <dc:title>https://svgstud.io</dc:title>
        </cc:Agent>
    </dc:creator>
</cc:Work>
<cc:License
    rdf:about="http://creativecommons.org/licenses/by-sa/4.0/">
    <cc:permits
    rdf:resource="http://creativecommons.org/ns#Reproduction" />
    <cc:permits
    rdf:resource="http://creativecommons.org/ns#Distribution" />
    <cc:requires
    rdf:resource="http://creativecommons.org/ns#Notice" />
    <cc:requires
    rdf:resource="http://creativecommons.org/ns#Attribution" />
    <cc:permits
    rdf:resource="http://creativecommons.org/ns#DerivativeWorks" />
    <cc:requires
    rdf:resource="http://creativecommons.org/ns#ShareAlike" />
</cc:License>
</rdf:RDF>
</metadata>
<metadata id="uid">
42ff895a0e6fcd00c78b22986addd19b73048cfc950b500b7d720225a87cf927
</metadata>
<path stroke="none" fill="black" fill-rule="evenodd" d="M383.50,730.44C364.80,730.67 340.73,730.46 330.00,729.98C319.27,729.51 303.52,728.62 295.00,728.01C286.48,727.41 272.30,726.24 263.50,725.42C254.70,724.60 236.03,721.88 222.00,719.38C207.97,716.88 186.15,712.21 173.50,709.00C160.85,705.79 146.45,701.75 141.50,700.02C136.55,698.29 128.45,694.89 123.50,692.46C118.55,690.03 111.88,685.89 108.69,683.25C105.49,680.60 101.56,676.49 99.96,674.11C98.36,671.72 96.77,668.31 96.44,666.52C96.01,664.26 96.44,662.06 97.82,659.38C98.91,657.25 100.96,654.42 102.37,653.10C103.79,651.78 105.40,649.31 105.95,647.60C106.51,645.90 106.90,640.67 106.82,635.98C106.72,629.66 107.14,626.50 108.47,623.71C109.45,621.64 112.29,618.15 114.79,615.95C117.29,613.76 121.76,610.57 124.74,608.86C129.69,606.03 130.09,605.54 129.41,603.13C129.00,601.68 128.70,599.44 128.73,598.15C128.77,596.86 130.28,594.27 132.10,592.40C133.91,590.53 135.81,589.00 136.32,589.00C136.83,589.00 136.68,589.67 136.00,590.50C135.32,591.33 135.15,592.01 135.63,592.03C136.11,592.05 135.71,592.52 134.75,593.08C133.79,593.64 133.01,594.64 133.02,595.30C133.02,595.96 133.42,597.12 133.90,597.87C134.37,598.62 136.28,599.41 138.13,599.61C139.98,599.82 143.97,601.73 147.00,603.85C150.03,605.97 154.30,608.62 156.50,609.74C158.70,610.86 163.63,612.74 167.46,613.92C174.41,616.06 174.41,616.06 178.76,611.71C183.11,607.36 183.11,607.36 177.19,603.85C173.94,601.92 168.55,599.58 165.22,598.64C161.89,597.71 158.79,597.01 158.33,597.09C157.88,597.17 156.82,597.13 156.00,596.99C155.18,596.86 156.91,596.40 159.85,595.97C162.80,595.54 165.68,594.72 166.26,594.14C167.00,593.40 166.96,592.66 166.13,591.65C165.47,590.86 162.65,589.23 159.85,588.03C156.60,586.63 155.11,585.49 155.72,584.88C156.33,584.27 158.45,584.32 161.59,585.02C164.29,585.62 168.38,587.21 170.68,588.56C172.98,589.90 175.11,591.00 175.43,591.00C175.74,591.00 176.00,589.68 176.00,588.07C176.00,586.45 175.53,583.90 174.96,582.40C174.25,580.52 174.25,579.35 174.96,578.64C175.53,578.07 176.00,576.85 176.00,575.92C176.00,575.00 175.32,573.68 174.49,572.99C173.14,571.87 173.15,571.61 174.55,570.59C175.83,569.65 175.92,568.91 175.00,566.51C174.39,564.90 174.15,562.55 174.46,561.29C174.78,560.03 175.48,559.00 176.02,559.00C176.56,559.00 177.00,559.37 177.00,559.81C177.00,560.26 177.92,561.61 179.04,562.81C180.16,564.02 181.53,565.00 182.09,565.00C182.65,565.00 183.57,563.65 184.15,562.00C184.73,560.35 185.86,559.00 186.67,559.00C187.48,559.00 190.12,560.16 192.52,561.57C196.88,564.12 196.92,564.12 198.61,562.15C200.18,560.31 200.49,560.28 202.66,561.69C203.94,562.54 205.00,563.89 205.00,564.69C205.00,565.79 205.73,566.00 207.87,565.53C210.29,565.00 211.15,565.42 213.37,568.20C214.82,570.01 216.68,572.21 217.51,573.08C218.33,573.96 219.00,575.62 219.00,576.77C219.00,577.93 219.42,579.14 219.93,579.46C220.44,579.77 221.14,579.58 221.49,579.02C221.84,578.46 222.82,578.00 223.69,578.00C224.96,578.00 225.13,578.76 224.61,582.03C224.12,585.07 224.32,586.19 225.43,586.61C226.24,586.92 227.93,586.39 229.20,585.44C231.25,583.89 231.50,582.86 231.50,576.10C231.50,569.75 231.88,567.96 233.82,565.25C235.10,563.46 237.08,561.49 238.22,560.88C240.05,559.90 240.21,559.99 239.51,561.63C239.08,562.66 238.36,565.98 237.91,569.00C237.46,572.02 237.35,575.51 237.66,576.75C238.00,578.12 238.98,579.00 240.15,579.00C241.26,579.00 242.82,577.72 243.80,576.00C244.73,574.36 246.95,572.31 248.73,571.47C250.51,570.62 253.60,567.96 255.61,565.56C257.61,563.17 260.25,560.75 261.46,560.20C263.19,559.41 264.40,559.65 266.96,561.27C270.25,563.35 270.25,563.35 266.06,564.59C263.76,565.27 260.44,566.82 258.69,568.04C256.94,569.26 254.04,572.05 252.25,574.24C250.46,576.43 249.00,578.83 249.00,579.59C249.00,580.64 250.12,580.83 253.75,580.40C257.27,579.98 258.11,580.11 257.00,580.90C256.18,581.49 253.34,581.98 250.71,581.98C247.95,581.99 244.35,582.82 242.21,583.93C240.17,585.00 235.66,588.37 232.19,591.43C228.71,594.50 225.21,597.00 224.40,597.00C223.60,597.00 222.61,597.84 222.22,598.88C221.82,599.91 218.70,603.08 215.29,605.93C209.87,610.45 208.81,610.97 206.97,609.99C205.38,609.13 204.46,609.17 203.19,610.13C202.26,610.82 199.80,612.98 197.72,614.92C194.68,617.77 194.27,618.57 195.57,619.03C196.47,619.34 200.19,619.27 203.85,618.87C207.51,618.46 213.49,617.20 217.15,616.06C220.81,614.92 226.53,612.16 229.86,609.94C233.19,607.71 238.20,603.01 241.00,599.49C243.80,595.98 248.92,590.85 252.37,588.10C255.82,585.36 260.86,582.23 263.57,581.16C266.28,580.09 272.02,577.30 276.33,574.97C280.64,572.64 284.43,570.05 284.75,569.20C285.14,568.20 283.97,566.51 281.42,564.37C279.26,562.56 275.93,560.42 274.00,559.62C272.07,558.82 266.68,557.00 262.00,555.58C257.32,554.16 251.25,553.00 248.50,553.01C245.75,553.02 239.34,553.91 234.25,554.98C228.43,556.21 220.26,557.02 212.25,557.16C203.20,557.31 198.79,556.99 197.06,556.05C195.72,555.32 193.47,554.34 192.06,553.86C190.20,553.24 190.87,553.13 194.50,553.47C197.25,553.73 201.07,554.20 203.00,554.51C204.93,554.82 207.13,554.65 207.90,554.14C209.03,553.38 208.61,552.36 205.77,548.85C203.82,546.46 201.03,542.09 199.55,539.15C198.08,536.21 196.02,530.48 194.98,526.41C193.85,522.01 192.47,510.41 191.57,497.76C190.73,486.07 189.53,474.70 188.91,472.50C188.28,470.30 186.45,465.87 184.83,462.67C183.21,459.46 180.05,454.84 177.82,452.42C175.58,449.99 170.99,446.66 167.62,445.01C164.26,443.37 158.99,441.74 155.91,441.40C152.02,440.95 148.59,441.27 144.59,442.43C140.75,443.55 137.39,445.44 134.47,448.13C132.07,450.35 129.16,454.11 128.00,456.49C126.34,459.93 125.96,462.40 126.15,468.44C126.36,475.11 126.12,476.32 124.22,478.23C122.42,480.02 121.57,480.23 119.30,479.44C117.80,478.91 115.50,476.90 114.20,474.99C112.13,471.94 111.87,470.56 112.17,464.00C112.43,458.27 113.17,455.14 115.33,450.75C116.88,447.59 120.34,442.60 123.02,439.67C125.70,436.73 130.55,432.92 133.79,431.19C137.17,429.39 142.76,427.52 146.85,426.82C152.49,425.85 155.51,425.85 161.14,426.82C165.72,427.60 171.09,429.51 176.16,432.15C181.92,435.14 185.68,438.03 190.09,442.84C193.59,446.66 197.55,452.40 199.49,456.47C201.34,460.34 203.54,466.88 204.38,471.00C205.22,475.12 206.37,485.93 206.94,495.02C207.52,504.10 208.47,514.23 209.07,517.52C209.66,520.81 211.67,526.69 213.53,530.58C215.39,534.47 218.96,540.44 221.45,543.83C225.01,548.66 226.56,550.00 228.61,550.00C230.91,550.00 231.17,549.67 230.75,547.25C230.49,545.74 229.14,540.67 227.75,536.00C226.36,531.33 224.50,523.26 223.61,518.09C222.73,512.91 221.50,502.34 220.89,494.59C220.27,486.84 219.99,472.18 220.26,462.00C220.65,447.49 221.44,439.51 223.92,425.00C225.66,414.82 228.90,398.40 231.11,388.50C233.33,378.60 236.72,364.88 238.66,358.00C240.60,351.12 242.78,342.80 243.52,339.50C244.25,336.20 246.26,329.23 247.97,324.00C249.69,318.77 252.28,311.57 253.74,308.00C255.20,304.43 256.98,300.61 257.70,299.53C258.41,298.44 259.00,296.43 259.00,295.05C259.00,293.68 260.22,289.45 261.70,285.67C263.19,281.88 265.32,278.19 266.45,277.46C267.68,276.67 274.67,275.70 284.00,275.04C292.52,274.43 301.07,273.42 303.00,272.78C306.50,271.63 306.50,271.63 303.22,270.93C301.41,270.55 296.69,270.63 292.72,271.12C288.75,271.60 281.56,272.29 276.75,272.64C270.60,273.10 268.00,272.97 268.00,272.18C268.00,271.57 269.80,268.28 272.00,264.88C274.20,261.47 276.00,257.90 276.00,256.93C276.00,255.59 273.75,254.41 266.73,252.08C261.63,250.38 255.10,247.40 252.23,245.47C249.36,243.54 245.17,239.62 242.92,236.78C240.67,233.93 237.57,229.11 236.03,226.05C234.49,223.00 232.46,218.03 231.52,215.00C230.43,211.47 229.62,204.42 229.27,195.28C228.91,185.90 229.15,178.94 229.96,174.80C230.64,171.35 232.48,165.69 234.05,162.22C235.86,158.25 239.22,153.52 243.17,149.40C246.61,145.82 251.92,141.37 254.96,139.53C258.01,137.68 262.98,135.19 266.00,133.98C270.03,132.38 274.46,131.66 282.58,131.28C291.25,130.87 294.95,131.13 299.54,132.47C302.77,133.41 307.46,135.22 309.96,136.50C312.46,137.77 317.39,141.33 320.93,144.41C324.69,147.69 328.30,150.00 329.63,150.00C330.89,150.00 337.90,146.88 345.21,143.07C352.52,139.26 361.43,135.12 365.00,133.87C370.95,131.80 373.30,131.60 393.00,131.55C410.44,131.51 415.68,131.83 420.77,133.23C424.21,134.19 430.29,136.35 434.27,138.03C438.24,139.72 443.18,142.20 445.23,143.55C447.28,144.90 449.61,146.00 450.40,146.00C451.20,146.00 453.81,142.30 456.21,137.77C459.35,131.84 461.73,128.73 464.72,126.63C467.51,124.67 470.51,123.56 473.95,123.23C477.34,122.91 480.50,123.30 483.41,124.41C485.81,125.33 489.36,127.62 491.29,129.50C493.23,131.37 496.09,135.52 497.65,138.71C500.34,144.18 500.50,145.22 500.50,157.65C500.50,170.80 500.50,170.80 495.56,180.43C490.96,189.40 490.74,190.16 492.29,191.72C493.84,193.27 494.63,192.67 503.96,182.84C511.13,175.28 515.73,171.36 520.23,168.96C525.47,166.17 527.82,165.55 534.52,165.19C541.22,164.84 543.74,165.19 549.74,167.27C553.70,168.65 559.82,171.83 563.34,174.35C566.86,176.86 571.52,181.08 573.69,183.71C575.86,186.34 578.58,190.07 579.74,192.00C580.90,193.93 583.07,199.10 584.55,203.50C586.84,210.25 587.26,213.22 587.28,222.50C587.30,231.70 586.88,234.81 584.69,241.50C583.25,245.90 580.45,252.20 578.47,255.50C576.49,258.80 573.22,263.23 571.19,265.35C569.16,267.47 564.22,271.43 560.22,274.15C556.22,276.87 553.21,279.53 553.53,280.05C553.85,280.57 554.68,281.00 555.38,281.00C556.07,281.00 559.08,281.74 562.07,282.64C565.06,283.54 566.96,284.47 566.31,284.70C565.65,284.94 563.40,284.63 561.31,284.02C559.21,283.42 553.67,282.44 549.00,281.86C544.33,281.27 538.25,280.42 535.50,279.96C530.86,279.19 531.02,279.15 537.70,279.43C544.16,279.70 545.45,279.42 550.20,276.72C553.12,275.07 558.54,270.55 562.26,266.69C565.98,262.83 570.36,257.66 572.00,255.19C573.63,252.73 575.92,248.19 577.08,245.11C578.25,242.02 579.69,235.18 580.28,229.89C581.20,221.75 581.10,218.92 579.64,211.39C578.69,206.50 576.58,199.64 574.96,196.15C572.98,191.89 569.80,187.60 565.26,183.06C560.12,177.94 557.06,175.78 552.50,174.07C549.20,172.83 544.23,171.58 541.46,171.29C537.61,170.89 535.20,171.29 531.24,172.99C528.39,174.22 525.56,175.82 524.95,176.56C524.34,177.30 523.71,179.05 523.55,180.45C523.40,181.86 520.70,186.36 517.56,190.46C513.66,195.55 511.95,198.65 512.18,200.21C512.43,201.98 513.24,202.57 515.75,202.81C517.84,203.01 519.00,203.67 519.00,204.63C519.00,205.46 518.48,207.11 517.84,208.32C517.21,209.52 515.58,211.46 514.24,212.62C512.89,213.79 510.03,215.27 507.89,215.91C505.75,216.56 504.00,217.62 504.01,218.29C504.01,218.96 505.50,221.07 507.32,223.00C509.13,224.93 510.92,227.30 511.28,228.27C511.65,229.24 513.80,232.76 516.06,236.09C518.34,239.44 519.91,242.79 519.60,243.61C519.29,244.42 519.46,245.85 519.99,246.79C520.52,247.73 521.68,250.97 522.59,254.00C523.49,257.02 524.44,261.52 524.71,264.00C524.98,266.48 525.19,270.44 525.17,272.81C525.15,276.23 525.56,277.27 527.16,277.86C528.98,278.54 529.02,278.74 527.59,279.93C526.71,280.65 526.00,282.62 526.00,284.30C526.00,285.99 525.06,290.85 523.91,295.11C522.76,299.37 521.01,303.59 520.01,304.49C518.32,306.02 517.86,305.97 513.35,303.70C510.68,302.36 507.38,300.93 506.00,300.53C504.62,300.12 500.93,298.66 497.79,297.28C494.02,295.62 491.22,294.98 489.54,295.40C488.14,295.75 487.00,296.47 487.00,297.00C487.00,297.52 488.04,298.63 489.31,299.46C490.57,300.30 496.83,302.34 503.21,304.01C512.23,306.37 517.97,308.71 529.10,314.55C536.97,318.69 545.80,323.92 548.73,326.18C551.66,328.44 554.34,330.74 554.69,331.30C555.08,331.93 554.78,331.99 553.90,331.46C553.13,331.00 550.14,329.11 547.25,327.28C544.36,325.44 537.39,321.68 531.75,318.93C525.87,316.05 520.46,314.04 519.05,314.21C517.53,314.39 515.89,315.71 514.73,317.71C512.90,320.85 512.91,321.00 514.87,325.43C515.96,327.91 517.81,333.45 518.96,337.72C520.11,342.00 524.17,354.27 527.97,365.00C531.77,375.73 535.80,388.55 536.94,393.50C538.07,398.45 539.01,404.07 539.01,406.00C539.02,407.93 539.30,410.51 539.63,411.75C539.98,413.05 541.01,414.00 542.07,414.00C543.07,414.00 546.51,412.43 549.70,410.50C552.89,408.58 557.75,406.22 560.50,405.26C564.13,403.99 568.65,403.51 577.00,403.51C586.18,403.51 589.96,403.96 595.74,405.78C601.78,407.67 604.09,409.09 609.66,414.28C614.41,418.71 617.13,422.25 619.10,426.59C620.63,429.94 622.63,436.69 623.56,441.59C624.77,447.99 625.07,453.11 624.65,459.74C624.23,466.22 623.09,471.89 620.82,478.73C618.57,485.52 615.80,491.16 611.72,497.26C608.49,502.09 601.94,509.99 597.17,514.83C592.40,519.66 585.80,525.89 582.50,528.68C576.50,533.75 576.50,533.75 577.86,537.12C578.60,538.98 579.88,542.30 580.69,544.50C581.69,547.19 582.06,551.13 581.83,556.50C581.55,562.89 580.86,565.81 578.39,571.03C576.70,574.63 573.61,579.93 571.53,582.83C569.45,585.72 567.95,588.28 568.19,588.53C568.44,588.77 573.11,589.89 578.57,591.01C584.03,592.12 592.77,594.20 598.00,595.61C603.23,597.02 611.33,599.75 616.00,601.67C620.67,603.59 627.21,606.66 630.52,608.50C633.83,610.33 638.63,613.68 641.18,615.93C643.74,618.18 646.77,621.96 647.92,624.33C649.79,628.19 650.00,630.44 650.00,646.19C650.00,662.56 649.84,664.12 647.60,669.19C646.27,672.18 643.61,676.01 641.69,677.70C639.76,679.39 636.23,682.12 633.84,683.76C631.45,685.40 625.90,688.57 621.50,690.81C617.10,693.04 610.35,696.00 606.50,697.38C602.65,698.76 593.65,701.75 586.50,704.01C579.35,706.28 566.52,709.66 558.00,711.52C549.48,713.38 537.33,715.80 531.00,716.91C524.67,718.01 511.62,720.03 502.00,721.39C492.38,722.75 480.00,724.35 474.50,724.95C469.00,725.54 453.93,726.93 441.00,728.03C425.78,729.32 405.52,730.17 383.50,730.44zM417.50,701.48C444.54,701.26 465.91,700.57 477.50,699.56C487.40,698.70 501.35,697.30 508.50,696.46C515.65,695.62 525.55,694.24 530.50,693.41C535.45,692.57 548.50,689.69 559.50,687.02C570.50,684.34 586.48,679.84 595.00,677.02C603.52,674.19 614.55,669.95 619.50,667.60C624.45,665.24 630.86,661.44 633.73,659.15C636.61,656.85 639.74,653.81 640.68,652.37C641.61,650.94 642.50,648.22 642.65,646.33C642.92,642.88 642.92,642.88 638.21,646.30C635.62,648.17 629.67,651.76 625.00,654.28C620.33,656.80 612.98,660.25 608.68,661.95C604.37,663.65 595.82,666.56 589.66,668.43C583.50,670.30 564.97,674.56 548.48,677.90C531.99,681.24 511.52,684.86 503.00,685.94C494.48,687.01 477.15,688.67 464.50,689.61C448.17,690.83 428.69,691.35 397.30,691.41C364.63,691.48 352.79,691.19 351.92,690.32C351.02,689.42 351.69,688.89 354.82,688.05C357.06,687.45 361.28,686.55 364.20,686.05C367.11,685.56 376.25,684.84 384.50,684.46C392.75,684.07 401.75,683.39 404.50,682.93C407.26,682.47 396.72,682.42 381.00,682.80C365.32,683.19 341.48,683.41 328.00,683.31C314.52,683.20 296.30,682.62 287.50,682.01C278.70,681.40 265.65,680.24 258.50,679.43C251.35,678.62 237.18,676.82 227.00,675.43C216.82,674.04 203.10,672.00 196.50,670.90C189.90,669.79 178.88,667.55 172.00,665.92C165.12,664.29 155.22,661.57 150.00,659.88C144.78,658.20 137.35,655.31 133.50,653.48C129.65,651.64 124.14,648.72 121.25,646.99C116.00,643.83 116.00,643.83 116.00,646.27C116.00,647.61 117.01,650.21 118.25,652.04C119.49,653.88 122.96,656.86 125.98,658.67C128.99,660.47 136.64,663.80 142.98,666.05C149.31,668.31 158.55,671.24 163.50,672.58C168.45,673.91 180.38,676.55 190.00,678.45C199.62,680.34 223.70,684.37 243.50,687.41C263.30,690.44 287.38,694.05 297.00,695.42C306.62,696.79 319.68,698.42 326.00,699.05C332.32,699.68 346.05,700.56 356.50,701.01C366.95,701.46 394.40,701.67 417.50,701.48zM411.00,673.42C435.48,673.22 469.00,672.38 485.50,671.56C502.00,670.74 518.65,669.61 522.50,669.05C526.35,668.49 535.12,666.93 542.00,665.58C548.88,664.23 559.37,661.96 565.32,660.54C571.27,659.12 582.75,655.77 590.82,653.09C598.90,650.41 611.35,645.71 618.50,642.64C629.04,638.12 632.32,636.20 635.82,632.52C638.77,629.41 640.04,627.27 639.82,625.75C639.64,624.52 638.71,623.37 637.75,623.19C636.71,622.99 636.00,623.46 636.00,624.35C636.00,625.17 634.83,627.23 633.41,628.92C631.99,630.62 630.41,632.00 629.91,632.00C629.41,632.00 629.90,630.32 631.00,628.26C632.10,626.21 633.00,623.55 633.00,622.35C633.00,621.13 631.58,618.98 629.75,617.43C627.96,615.93 624.70,613.87 622.50,612.87C620.30,611.86 617.09,611.03 615.37,611.02C613.21,611.01 612.09,611.55 611.77,612.75C611.51,613.76 609.25,615.22 606.41,616.21C602.53,617.57 600.49,617.73 596.68,616.98C594.03,616.46 591.47,615.79 590.98,615.49C590.50,615.19 583.21,613.38 574.80,611.48C566.38,609.57 557.77,608.01 555.66,608.01C553.01,608.00 548.81,609.55 542.03,613.03C536.65,615.80 529.68,620.30 526.55,623.04C523.42,625.78 519.56,628.69 517.98,629.51C516.40,630.33 514.46,631.00 513.67,631.00C512.89,631.00 511.78,631.56 511.21,632.25C510.47,633.14 510.58,634.08 511.58,635.44C512.36,636.51 513.00,638.13 513.00,639.04C513.00,639.95 512.05,641.55 510.88,642.60C509.71,643.64 507.02,647.04 504.91,650.15C502.79,653.26 499.40,657.17 497.39,658.83C495.05,660.76 490.87,662.62 485.86,663.98C481.53,665.15 473.16,666.74 467.25,667.53C460.62,668.41 447.65,668.97 433.43,668.98C416.68,668.99 407.77,668.56 400.93,667.39C395.74,666.50 389.16,664.90 386.31,663.84C383.29,662.71 379.85,660.45 378.07,658.43C376.40,656.52 374.74,653.81 374.39,652.41C373.88,650.39 374.45,649.12 377.12,646.30C379.01,644.31 380.01,642.56 379.38,642.33C378.77,642.11 376.33,640.93 373.96,639.71C370.18,637.77 368.98,636.21 364.00,626.75C360.88,620.83 358.08,615.75 357.78,615.45C357.48,615.15 355.51,615.87 353.40,617.06C351.29,618.24 347.52,619.33 345.03,619.46C342.54,619.60 339.32,620.27 337.89,620.95C335.71,621.99 334.74,621.92 332.01,620.50C329.64,619.28 327.54,618.99 324.41,619.46C321.86,619.84 319.23,619.66 318.01,619.01C316.35,618.12 315.38,618.30 313.07,619.95C311.49,621.08 309.59,622.00 308.85,622.00C308.11,622.00 306.15,620.44 304.50,618.54C302.01,615.67 300.47,614.91 295.50,614.09C292.20,613.55 286.79,612.63 283.47,612.06C280.15,611.48 271.83,609.41 264.97,607.44C258.11,605.48 250.47,603.79 248.00,603.69C243.82,603.51 243.50,603.68 243.50,606.00C243.50,608.46 243.62,608.50 252.00,608.58C256.68,608.62 263.79,609.46 267.81,610.45C273.75,611.91 276.23,613.17 281.06,617.21C284.33,619.94 287.27,623.22 287.59,624.50C287.91,625.77 287.67,627.76 287.05,628.91C285.96,630.94 286.15,631.00 293.21,631.12C297.22,631.19 303.65,631.37 307.50,631.52C311.35,631.67 317.17,632.10 320.44,632.47C323.70,632.84 327.64,633.80 329.19,634.60C331.01,635.54 331.99,636.84 331.98,638.28C331.97,639.50 329.95,643.95 327.49,648.18C325.03,652.40 321.72,656.78 320.12,657.91C318.53,659.04 314.82,660.52 311.87,661.19C308.91,661.87 301.32,662.43 295.00,662.45C288.14,662.47 281.58,661.93 278.75,661.11C275.52,660.18 272.85,658.47 270.40,655.76C268.42,653.57 265.73,649.47 264.41,646.64C263.10,643.81 262.02,640.70 262.01,639.73C262.00,638.75 263.01,637.57 264.25,637.10C265.49,636.63 268.80,635.93 271.62,635.55C276.59,634.87 276.75,634.93 277.25,637.50C277.64,639.55 277.27,640.34 275.63,640.98C273.59,641.76 273.62,641.84 276.32,642.90C277.86,643.50 279.24,644.00 279.37,644.00C279.51,644.00 279.53,642.71 279.42,641.14C279.23,638.39 279.50,638.21 286.00,636.64C289.73,635.74 294.86,635.00 297.39,635.00C299.93,635.00 302.00,635.40 302.00,635.88C302.00,636.37 300.24,638.28 298.09,640.13C295.94,641.99 293.12,644.32 291.84,645.31C289.50,647.13 289.50,647.13 292.00,646.58C293.38,646.27 297.20,645.99 300.50,645.95C306.50,645.87 306.50,645.87 303.23,644.25C301.43,643.35 300.11,642.17 300.29,641.62C300.48,641.07 301.72,639.81 303.06,638.81C304.40,637.82 306.62,636.93 308.00,636.83C309.38,636.74 313.65,637.00 317.50,637.42C322.07,637.91 324.15,637.83 323.50,637.20C322.95,636.66 319.80,635.99 316.50,635.70C313.20,635.42 307.57,634.66 304.00,634.00C300.24,633.31 294.11,633.06 289.45,633.39C281.41,633.98 281.41,633.98 281.16,630.25C281.01,628.10 280.00,625.57 278.76,624.25C277.58,622.99 275.02,621.49 273.06,620.90C269.85,619.94 268.88,620.17 263.35,623.17C259.98,625.00 253.90,628.50 249.86,630.95C245.81,633.39 240.70,636.09 238.50,636.95C235.17,638.24 229.04,638.50 202.00,638.47C180.67,638.46 167.27,638.03 163.00,637.22C159.43,636.55 155.26,635.80 153.75,635.57C152.24,635.33 151.00,635.54 151.00,636.04C151.00,636.54 152.69,637.84 154.75,638.93C158.50,640.91 158.50,640.91 154.22,640.96C151.86,640.98 147.14,640.06 143.72,638.92C140.30,637.77 135.03,635.45 132.00,633.75C128.97,632.06 126.31,630.51 126.07,630.32C125.83,630.13 126.17,629.43 126.82,628.78C127.73,627.87 128.28,627.88 129.21,628.81C130.16,629.76 131.79,628.67 136.71,623.79C140.17,620.36 143.00,616.83 143.00,615.94C143.00,615.05 141.85,613.80 140.45,613.16C139.05,612.52 136.64,612.00 135.10,612.00C133.56,612.00 130.55,613.27 128.40,614.83C126.26,616.38 123.04,619.32 121.25,621.36C119.46,623.40 118.00,625.89 118.00,626.89C118.00,627.89 119.07,629.86 120.38,631.28C121.69,632.69 124.95,634.95 127.63,636.30C130.31,637.65 138.67,640.84 146.22,643.40C153.76,645.95 166.36,649.58 174.22,651.46C182.07,653.34 200.43,656.92 215.00,659.41C229.57,661.89 250.50,665.06 261.50,666.43C272.50,667.81 287.80,669.38 295.50,669.93C303.20,670.47 319.85,671.40 332.50,671.99C345.15,672.59 357.98,673.23 361.00,673.43C364.02,673.62 386.52,673.62 411.00,673.42zM441.50,658.46C450.30,658.23 462.90,657.35 469.50,656.49C476.10,655.63 483.75,654.18 486.50,653.26C489.73,652.19 490.84,651.46 489.65,651.21C488.63,650.99 485.77,651.32 483.30,651.95C480.82,652.57 472.32,653.73 464.40,654.53C452.99,655.67 446.35,655.76 432.37,654.96C422.68,654.41 411.56,653.50 407.67,652.95C403.78,652.40 397.73,651.29 394.24,650.47C390.74,649.66 386.95,649.00 385.82,649.00C384.04,649.00 383.94,649.22 385.09,650.60C385.82,651.49 387.55,652.64 388.94,653.17C390.32,653.69 394.61,654.80 398.48,655.62C402.34,656.45 410.00,657.52 415.50,657.99C421.00,658.47 432.70,658.68 441.50,658.46zM404.66,645.00C406.68,645.00 407.86,644.59 407.51,644.02C407.17,643.47 403.66,641.13 399.70,638.80C395.74,636.47 389.98,632.02 386.90,628.91C382.98,624.96 379.93,620.45 376.71,613.87C374.18,608.70 370.96,599.98 369.56,594.49C368.15,588.99 364.97,572.38 362.48,557.58C359.99,542.77 357.44,530.03 356.80,529.26C355.83,528.09 355.51,528.13 354.74,529.50C354.19,530.49 354.27,537.47 354.96,547.31C355.58,556.22 356.97,569.12 358.06,576.00C359.15,582.88 361.18,592.55 362.58,597.50C363.97,602.45 367.13,610.68 369.59,615.78C372.93,622.69 375.66,626.65 380.29,631.30C384.29,635.33 389.12,638.87 393.85,641.27C398.12,643.44 402.65,645.00 404.66,645.00zM490.84,639.00C491.30,639.00 494.57,635.96 498.12,632.25C501.67,628.54 506.19,623.25 508.16,620.50C510.13,617.75 512.65,613.70 513.76,611.50C514.86,609.30 516.68,604.12 517.80,600.00C518.92,595.88 520.57,588.67 521.46,584.00C522.35,579.33 523.30,569.65 523.57,562.50C523.84,555.35 524.25,543.42 524.48,536.00C524.71,528.58 525.20,521.04 525.57,519.25C526.18,516.23 525.97,515.89 522.71,514.52C520.77,513.71 514.08,512.16 507.84,511.08C501.60,509.99 491.55,508.64 485.50,508.08C479.45,507.52 465.16,506.77 453.75,506.41C433.00,505.76 433.00,505.76 433.00,509.40C433.00,513.04 433.00,513.04 459.75,512.86C479.84,512.72 489.74,513.10 499.50,514.36C506.65,515.28 513.96,516.27 515.75,516.56C518.11,516.95 519.00,517.62 519.00,519.02C519.00,520.08 517.88,521.68 516.52,522.58C515.16,523.47 509.05,525.05 502.96,526.09C496.18,527.25 481.91,528.40 466.19,529.05C452.06,529.64 433.75,529.84 425.50,529.49C417.25,529.15 403.52,528.21 395.00,527.41C386.48,526.61 376.80,525.48 373.51,524.89C370.21,524.30 365.94,523.16 364.01,522.34C360.50,520.86 360.50,520.86 362.70,519.06C363.98,518.01 369.04,516.50 374.70,515.47C381.25,514.28 389.87,513.66 400.67,513.59C409.56,513.54 417.14,513.20 417.51,512.83C417.88,512.45 417.89,511.22 417.52,510.07C417.16,508.93 416.06,507.57 415.08,507.04C413.94,506.43 408.79,506.44 400.89,507.06C394.08,507.60 384.23,508.73 379.00,509.57C373.77,510.41 366.57,511.96 362.98,513.01C359.40,514.06 355.44,515.87 354.19,517.04C352.58,518.54 352.10,519.79 352.56,521.33C352.91,522.52 353.88,524.04 354.71,524.69C355.55,525.35 360.11,526.79 364.86,527.89C369.61,528.99 378.23,530.57 384.00,531.40C389.77,532.24 399.90,533.38 406.50,533.95C413.10,534.52 426.82,534.98 437.00,534.98C447.18,534.98 463.15,534.31 472.50,533.50C481.85,532.69 493.30,531.58 497.94,531.03C502.58,530.49 506.55,530.22 506.76,530.43C506.98,530.64 506.29,531.09 505.23,531.43C504.17,531.76 502.79,533.18 502.15,534.57C501.45,536.11 501.01,542.80 501.02,551.80C501.02,559.88 501.42,567.11 501.89,567.86C502.47,568.77 503.14,567.02 503.91,562.59C504.55,558.94 505.34,552.36 505.68,547.97C506.02,543.57 506.90,539.19 507.64,538.24C508.77,536.76 508.90,538.17 508.50,547.50C508.24,553.55 507.79,567.78 507.50,579.12C507.20,590.45 507.25,600.48 507.60,601.39C508.08,602.64 508.56,602.78 509.55,601.96C510.28,601.35 511.16,599.55 511.51,597.94C511.87,596.34 512.50,594.81 512.93,594.55C513.35,594.28 513.51,596.41 513.27,599.28C513.03,602.15 512.38,606.00 511.81,607.84C511.25,609.67 508.91,613.29 506.61,615.87C504.31,618.46 500.32,623.76 497.73,627.66C495.14,631.55 492.34,635.30 491.51,635.99C490.68,636.68 490.00,637.64 490.00,638.12C490.00,638.61 490.38,639.00 490.84,639.00zM480.19,621.00C480.70,621.00 481.96,619.08 483.00,616.73C484.04,614.39 485.35,609.55 485.91,605.98C486.47,602.42 487.39,591.17 487.96,581.00C488.53,570.83 489.00,557.21 489.00,550.75C489.00,539.00 489.00,539.00 485.25,539.02C483.19,539.02 481.00,539.36 480.38,539.77C479.63,540.26 479.04,550.81 478.55,572.53C478.15,590.15 478.15,608.26 478.54,612.78C478.94,617.30 479.68,621.00 480.19,621.00zM185.00,619.91C187.47,619.94 190.12,619.58 190.88,619.10C191.64,618.62 191.94,617.71 191.56,617.09C191.17,616.47 192.01,614.58 193.43,612.90C194.84,611.22 196.00,609.43 196.00,608.92C196.00,608.42 194.51,608.00 192.70,608.00C190.60,608.00 187.90,609.10 185.31,611.00C183.06,612.66 180.51,615.10 179.64,616.43C178.45,618.25 178.36,618.97 179.28,619.35C179.95,619.62 182.53,619.87 185.00,619.91zM336.24,611.54C336.79,610.55 336.69,608.59 335.97,606.42C335.34,604.49 333.04,600.85 330.86,598.34C328.69,595.83 327.08,593.26 327.29,592.64C327.50,592.01 328.42,591.35 329.34,591.17C330.26,591.00 331.90,591.90 332.98,593.17C334.06,594.45 336.56,597.48 338.52,599.91C340.49,602.33 342.71,605.76 343.45,607.54C344.19,609.31 345.32,611.08 345.96,611.48C346.61,611.88 347.39,611.94 347.71,611.62C348.03,611.30 347.30,608.44 346.09,605.27C344.87,602.10 342.54,597.40 340.89,594.84C339.25,592.28 337.14,589.87 336.20,589.49C335.27,589.10 332.02,588.44 329.00,588.00C325.98,587.57 315.40,585.82 305.50,584.12C295.60,582.42 285.93,581.02 284.00,581.01C282.06,581.01 277.60,582.43 274.00,584.20C267.50,587.40 267.50,587.40 275.00,588.04C279.12,588.39 283.62,589.15 285.00,589.73C286.38,590.31 290.94,591.79 295.15,593.03C299.36,594.27 303.55,595.00 304.47,594.65C305.60,594.21 305.93,593.37 305.50,592.00C304.95,590.26 305.32,590.00 308.37,590.00C310.29,590.00 312.95,590.41 314.28,590.91C315.60,591.42 318.89,593.73 321.59,596.05C324.29,598.38 326.67,600.78 326.88,601.39C327.09,602.00 329.08,604.89 331.30,607.82C334.61,612.17 335.51,612.84 336.24,611.54zM309.51,610.99C310.46,610.21 311.00,607.98 311.00,604.88C311.00,601.28 310.46,599.46 308.94,597.94C307.80,596.80 306.37,596.04 305.76,596.25C305.15,596.45 304.17,597.37 303.59,598.30C302.78,599.56 303.06,601.01 304.70,604.24C305.89,606.58 307.13,609.34 307.45,610.36C307.92,611.89 308.29,612.00 309.51,610.99zM320.54,611.00C321.34,611.00 322.00,610.35 322.00,609.55C322.00,608.75 321.48,606.95 320.84,605.55C320.20,604.15 319.08,603.00 318.34,603.00C317.60,603.00 317.00,603.93 317.00,605.07C317.00,606.20 317.47,608.00 318.04,609.07C318.60,610.13 319.73,611.00 320.54,611.00zM526.10,608.95C527.25,608.33 532.09,605.07 536.85,601.71C541.61,598.35 548.96,592.13 553.18,587.90C557.41,583.67 562.05,577.87 563.49,575.02C564.94,572.17 565.98,568.94 565.81,567.85C565.56,566.24 564.83,566.77 561.91,570.68C559.94,573.33 555.90,578.14 552.95,581.37C549.99,584.60 543.21,590.78 537.88,595.10C532.55,599.41 527.24,604.14 526.09,605.61C524.94,607.07 524.00,608.67 524.00,609.17C524.00,609.67 524.94,609.56 526.10,608.95zM195.32,597.00C196.35,597.00 196.98,596.45 196.76,595.75C196.53,595.06 195.37,594.36 194.17,594.18C192.69,593.96 192.00,593.15 192.00,591.65C192.00,590.44 191.30,588.44 190.44,587.22C188.99,585.14 189.02,585.00 190.94,585.00C192.24,585.00 192.99,584.35 192.98,583.25C192.98,582.29 192.55,580.84 192.04,580.04C191.34,578.92 191.85,578.26 194.16,577.29C195.84,576.59 197.63,576.27 198.15,576.59C198.67,576.91 198.81,579.05 198.47,581.34C197.93,584.94 198.19,585.83 200.35,587.86C201.87,589.29 203.37,589.92 204.18,589.46C205.24,588.85 205.26,588.97 204.25,590.05C203.56,590.79 203.00,591.76 203.00,592.20C203.00,592.64 203.97,593.00 205.16,593.00C206.34,593.00 208.82,591.85 210.66,590.45C213.11,588.58 214.00,587.12 214.00,584.97C214.00,583.36 213.26,580.18 212.35,577.90C211.15,574.92 209.76,573.38 207.38,572.38C205.56,571.62 203.16,571.00 202.06,571.00C200.95,571.00 198.57,570.10 196.77,569.00C194.97,567.91 192.09,567.01 190.37,567.00C188.16,567.00 186.32,567.94 184.12,570.19C181.55,572.82 181.00,574.18 181.00,577.94C181.01,580.61 181.77,583.74 182.85,585.50C183.86,587.15 186.67,590.41 189.08,592.75C191.50,595.09 194.31,597.00 195.32,597.00zM152.12,580.93C149.77,580.87 149.70,580.78 151.50,580.02C152.60,579.55 154.23,578.94 155.13,578.66C156.24,578.32 157.32,575.64 158.49,570.33C159.44,566.02 161.31,560.16 162.66,557.30C164.05,554.34 165.97,551.83 167.13,551.46C168.26,551.10 170.82,551.12 172.83,551.50C176.49,552.18 176.49,552.18 172.70,555.23C170.61,556.90 168.06,559.92 167.03,561.93C166.01,563.95 164.84,567.34 164.44,569.48C163.78,572.98 163.99,573.58 166.61,575.67C169.50,577.99 169.50,577.99 166.38,578.00C164.66,578.00 161.34,578.67 159.00,579.50C156.66,580.33 153.57,580.97 152.12,580.93zM535.60,579.31C538.19,578.43 544.22,575.09 549.01,571.89C553.80,568.68 558.93,564.47 560.42,562.51C561.91,560.56 563.39,557.40 563.69,555.50C564.00,553.59 563.70,550.69 563.02,549.05C562.34,547.41 561.00,545.82 560.03,545.51C559.07,545.20 557.43,545.26 556.39,545.64C555.35,546.02 549.22,551.62 542.77,558.09C532.68,568.21 530.96,570.41 530.40,573.89C530.05,576.11 530.01,578.60 530.33,579.42C530.84,580.73 531.46,580.72 535.60,579.31zM335.48,579.68C336.04,579.50 336.64,578.14 336.82,576.67C336.99,575.20 337.47,574.00 337.88,574.00C338.29,574.00 340.49,574.90 342.76,576.00C345.04,577.10 347.83,578.00 348.95,578.00C350.56,578.00 351.00,577.36 351.00,575.03C351.00,573.40 350.33,567.43 349.50,561.78C348.68,556.13 347.38,544.30 346.61,535.50C345.84,526.70 345.43,518.07 345.71,516.32C346.04,514.18 345.39,511.39 343.73,507.82C342.36,504.89 339.64,500.65 337.67,498.40C335.71,496.14 331.63,493.00 328.61,491.42C324.29,489.16 323.36,488.27 324.23,487.22C325.01,486.28 326.57,486.08 329.42,486.54C331.66,486.90 335.30,488.24 337.50,489.51C339.70,490.79 343.16,493.56 345.18,495.67C347.21,497.78 350.04,501.86 351.49,504.75C352.93,507.64 354.42,510.00 354.80,509.99C355.19,509.99 358.43,509.08 362.00,507.97C365.57,506.86 372.77,505.29 378.00,504.47C383.23,503.66 393.48,502.70 400.79,502.34C408.10,501.98 414.29,501.34 414.56,500.91C414.82,500.48 413.84,497.68 412.38,494.70C410.65,491.18 409.93,488.43 410.31,486.88C410.64,485.57 411.57,483.61 412.37,482.51C413.43,481.06 414.90,480.56 417.86,480.63C421.52,480.73 422.00,480.45 422.99,477.62C423.59,475.90 424.34,471.12 424.65,467.00C425.14,460.34 424.91,458.89 422.61,454.00C421.19,450.98 420.02,446.91 420.01,444.96C420.00,443.02 420.90,439.66 422.00,437.50C423.10,435.34 424.00,433.04 424.00,432.39C424.00,431.74 419.48,428.63 413.95,425.47C408.06,422.11 402.81,418.31 401.27,416.29C398.73,412.96 398.51,412.88 393.58,413.55C390.79,413.93 387.35,414.82 385.95,415.54C384.55,416.26 377.57,422.12 370.45,428.57C363.33,435.02 354.35,442.52 350.50,445.24C346.65,447.96 341.02,451.43 338.00,452.95C334.98,454.47 329.80,456.63 326.50,457.75C323.20,458.87 318.11,460.10 315.18,460.49C312.25,460.89 309.70,461.72 309.51,462.35C309.32,462.98 308.90,464.72 308.57,466.21C308.09,468.41 307.17,469.13 303.74,469.96C301.41,470.53 297.40,471.62 294.83,472.38C292.26,473.14 286.95,475.92 283.01,478.56C279.08,481.20 273.91,485.53 271.52,488.18C269.14,490.84 266.47,495.11 265.59,497.68C264.72,500.25 264.01,503.29 264.03,504.43C264.06,506.34 264.22,506.30 266.03,503.87C267.11,502.42 269.17,500.46 270.61,499.52C273.23,497.81 273.23,497.81 272.51,505.90C271.98,511.83 272.11,514.00 272.96,514.00C273.61,514.00 274.95,513.56 275.95,513.03C277.48,512.21 277.86,512.54 278.38,515.15C278.72,516.86 279.01,519.66 279.02,521.38C279.04,523.09 279.84,527.62 280.82,531.43C281.80,535.24 283.12,538.54 283.76,538.75C284.40,538.97 285.22,537.99 285.57,536.57C285.93,535.16 286.52,534.00 286.89,534.00C287.26,534.00 288.11,535.44 288.77,537.21C289.49,539.10 290.33,540.02 290.83,539.46C291.29,538.93 292.46,536.36 293.42,533.74C294.38,531.13 295.52,529.20 295.95,529.47C296.38,529.73 297.30,531.99 298.00,534.49C298.70,536.99 300.62,541.16 302.28,543.77C304.95,547.96 305.38,548.27 306.07,546.50C306.51,545.40 306.91,542.92 306.97,541.00C307.07,537.66 307.22,537.82 310.41,544.60C312.24,548.51 314.74,554.70 315.96,558.37C317.18,562.03 319.97,567.73 322.17,571.02C324.37,574.31 326.69,577.05 327.33,577.12C327.97,577.18 328.86,577.18 329.30,577.10C329.75,577.02 331.09,577.65 332.29,578.49C333.48,579.33 334.92,579.86 335.48,579.68zM575.83,544.40C576.02,542.85 575.35,540.61 574.27,539.15C573.22,537.76 570.23,534.80 567.62,532.59C563.23,528.87 562.33,528.53 555.89,528.16C549.64,527.81 548.24,528.10 542.46,530.94C538.89,532.70 534.94,535.55 533.62,537.31C532.31,539.06 530.92,541.51 530.55,542.75C530.06,544.37 530.33,545.19 531.51,545.64C532.63,546.07 534.65,544.82 537.83,541.74C540.40,539.25 543.94,536.49 545.70,535.61C547.46,534.72 551.19,534.00 553.99,534.00C557.05,534.00 560.56,534.76 562.79,535.92C564.83,536.97 568.52,539.92 571.00,542.47C575.50,547.11 575.50,547.11 575.83,544.40zM565.31,527.99C566.51,527.99 570.46,525.76 574.08,523.03C577.71,520.31 584.36,514.39 588.88,509.88C593.39,505.36 599.32,498.71 602.04,495.08C604.76,491.46 608.54,485.55 610.44,481.95C612.34,478.36 614.88,471.83 616.08,467.45C617.73,461.48 618.25,456.89 618.20,449.00C618.15,442.96 617.48,436.23 616.62,433.14C615.80,430.20 613.86,425.97 612.32,423.75C610.78,421.52 607.25,417.99 604.47,415.89C601.68,413.79 597.27,411.12 594.65,409.96C590.99,408.34 587.88,407.86 581.19,407.87C575.21,407.88 570.47,408.53 566.00,409.94C562.42,411.08 555.45,414.16 550.50,416.78C541.65,421.48 541.49,421.63 541.21,425.53C541.04,427.81 541.51,430.32 542.32,431.42C543.67,433.27 543.87,433.20 547.40,429.67C549.41,427.65 551.49,426.00 552.00,426.00C552.51,426.00 555.67,424.23 559.01,422.07C562.35,419.92 567.33,417.67 570.09,417.07C572.84,416.48 577.28,416.00 579.94,416.00C582.61,416.00 587.67,416.89 591.19,417.98C595.01,419.16 599.26,421.39 601.75,423.52C604.18,425.60 607.17,429.67 608.94,433.29C610.60,436.71 612.47,442.67 613.09,446.54C613.89,451.51 613.92,455.47 613.20,460.04C612.64,463.59 611.20,469.11 610.00,472.30C608.80,475.50 605.60,481.42 602.89,485.47C600.18,489.52 594.71,496.32 590.73,500.58C586.76,504.84 578.90,511.88 573.27,516.22C567.65,520.56 562.78,524.54 562.46,525.06C562.14,525.58 562.16,526.45 562.50,527.00C562.84,527.55 564.10,528.00 565.31,527.99zM538.57,527.00C538.63,527.00 541.13,526.16 544.12,525.13C547.10,524.10 552.01,522.02 555.02,520.49C558.04,518.97 562.98,516.04 566.00,513.99C569.02,511.94 573.85,508.14 576.73,505.56C579.60,502.97 584.74,497.40 588.14,493.18C591.54,488.96 596.04,481.90 598.14,477.50C600.49,472.57 602.37,466.74 603.04,462.33C603.80,457.32 603.82,453.48 603.10,449.60C602.54,446.55 601.42,442.80 600.62,441.27C599.82,439.75 597.44,436.83 595.33,434.80C593.22,432.76 589.83,430.40 587.78,429.55C585.74,428.70 581.56,428.00 578.49,428.00C574.96,428.00 571.56,428.70 569.21,429.92C567.17,430.97 563.67,433.78 561.43,436.17C559.18,438.55 555.05,443.31 552.25,446.75C547.82,452.17 547.06,453.77 546.51,458.75C546.16,461.91 545.22,469.90 544.41,476.50C543.61,483.10 541.83,492.90 540.46,498.27C539.08,503.64 537.07,510.29 535.98,513.05C534.89,515.82 534.00,519.38 534.00,520.98C534.00,522.85 534.79,524.44 536.22,525.44C537.44,526.30 538.50,527.00 538.57,527.00zM411.40,519.35C413.55,519.12 415.76,518.65 416.31,518.31C416.88,517.95 416.52,517.13 415.46,516.35C414.43,515.60 411.38,515.04 408.56,515.10C405.78,515.15 402.46,515.49 401.19,515.85C399.92,516.21 398.80,516.95 398.69,517.50C398.59,518.05 400.52,518.79 403.00,519.14C405.48,519.49 409.26,519.59 411.40,519.35zM443.75,518.90C446.09,518.96 448.00,518.57 448.00,518.04C448.00,517.50 447.19,516.64 446.20,516.11C445.21,515.58 442.17,515.00 439.45,514.82C435.64,514.57 434.50,514.83 434.50,515.95C434.50,516.76 435.62,517.72 437.00,518.11C438.38,518.49 441.41,518.85 443.75,518.90zM428.69,514.96C429.35,514.98 430.10,514.64 430.38,514.20C430.65,513.76 429.87,511.62 428.66,509.45C427.33,507.09 425.58,505.38 424.29,505.19C422.90,504.99 421.73,505.64 420.99,507.02C420.36,508.19 420.10,509.81 420.41,510.62C420.72,511.42 422.44,512.72 424.23,513.50C426.03,514.28 428.04,514.94 428.69,514.96zM517.66,507.89C519.37,507.98 520.14,507.03 521.42,503.27C522.31,500.66 523.29,496.05 523.60,493.02C523.91,489.98 525.09,485.25 526.23,482.50C527.58,479.22 528.46,474.35 528.78,468.34C529.16,461.14 528.88,458.11 527.48,454.21C525.69,449.24 525.69,449.24 529.46,445.47C531.53,443.40 534.07,439.86 535.09,437.60C536.12,435.35 536.97,431.32 536.98,428.67C536.99,425.24 536.64,423.95 535.75,424.24C535.06,424.47 533.65,426.99 532.62,429.85C531.58,432.71 529.11,436.88 527.12,439.12C524.12,442.49 522.71,443.28 518.87,443.71C516.32,444.00 512.59,443.69 510.58,443.03C508.57,442.36 506.24,440.77 505.39,439.48C504.55,438.19 504.00,435.86 504.18,434.31C504.45,431.94 505.05,431.42 508.00,431.00C510.78,430.60 511.91,429.74 513.50,426.77C515.50,423.03 515.50,423.03 511.88,420.05C509.89,418.41 507.48,415.42 506.52,413.41C505.31,410.85 504.97,408.56 505.41,405.81C505.76,403.65 505.57,400.11 504.99,397.95C504.41,395.80 503.08,393.58 502.03,393.02C500.99,392.46 499.84,391.06 499.47,389.91C498.91,388.15 498.20,387.88 495.15,388.27C493.14,388.52 486.20,389.51 479.72,390.46C473.25,391.41 467.25,391.93 466.41,391.60C465.43,391.23 464.98,390.05 465.18,388.40C465.44,386.29 466.46,385.42 470.50,383.89C473.25,382.85 476.23,382.00 477.12,382.00C478.00,382.00 479.90,381.08 481.32,379.96C483.54,378.22 484.21,378.11 486.02,379.21C487.90,380.36 488.39,380.19 490.36,377.75C491.58,376.24 493.33,375.00 494.26,375.00C495.19,375.00 496.62,373.70 497.44,372.12C498.26,370.54 499.65,368.96 500.54,368.62C501.44,368.28 503.68,368.00 505.52,368.00C507.37,368.00 509.21,368.52 509.60,369.17C510.02,369.85 509.16,371.26 507.52,372.57C505.60,374.10 504.92,375.34 505.37,376.52C505.81,377.66 506.71,378.05 508.11,377.68C509.25,377.38 510.79,377.37 511.52,377.65C512.52,378.03 512.37,378.63 510.89,380.11C509.80,381.20 509.25,382.60 509.66,383.25C510.06,383.90 510.64,386.02 510.95,387.97C511.45,391.08 511.91,391.54 514.76,391.81C516.54,391.99 518.00,392.33 518.00,392.58C518.00,392.82 517.48,393.86 516.84,394.88C516.21,395.90 515.98,397.50 516.34,398.43C516.69,399.36 517.44,399.84 518.00,399.50C518.56,399.15 519.91,399.16 521.01,399.50C522.10,399.85 523.00,400.58 523.00,401.12C523.00,401.66 521.41,402.77 519.47,403.58C517.52,404.39 515.44,406.14 514.83,407.46C514.23,408.79 514.01,410.58 514.34,411.44C514.67,412.30 515.67,413.00 516.56,413.00C517.45,413.00 519.33,412.10 520.73,411.00C522.13,409.90 524.33,409.00 525.63,409.00C527.60,409.00 528.00,409.51 528.00,412.00C528.00,414.35 528.44,415.00 530.02,415.00C531.28,415.00 532.42,414.02 533.02,412.43C533.56,411.02 534.00,408.75 534.00,407.38C534.00,406.01 532.37,400.98 530.38,396.19C528.39,391.41 526.03,385.70 525.13,383.50C524.23,381.30 521.54,377.52 519.13,375.11C515.43,371.38 515.01,370.57 516.38,369.81C517.27,369.31 518.00,367.81 518.00,366.49C518.00,365.13 517.16,363.62 516.08,363.04C515.02,362.48 513.42,361.28 512.53,360.39C511.12,358.97 511.09,358.55 512.33,357.13C513.12,356.23 514.06,354.54 514.41,353.36C514.80,352.08 513.85,347.58 512.03,342.10C510.36,337.08 509.00,332.30 509.00,331.49C509.00,330.67 508.20,330.00 507.22,330.00C506.25,330.00 502.98,331.85 499.97,334.11C496.96,336.38 490.90,340.05 486.50,342.29C482.10,344.52 474.68,347.33 470.00,348.53C463.98,350.07 461.29,350.39 460.77,349.60C460.36,349.00 460.03,347.38 460.03,346.00C460.03,344.62 460.36,343.00 460.77,342.40C461.17,341.79 462.55,340.74 463.84,340.06C465.13,339.39 467.24,339.10 468.54,339.42C470.19,339.84 473.93,338.47 481.19,334.80C489.14,330.79 493.01,328.08 498.09,322.97C501.72,319.32 505.43,316.05 506.34,315.70C507.25,315.35 508.00,314.43 508.00,313.65C508.00,312.88 507.44,311.82 506.75,311.30C506.06,310.78 502.02,308.93 497.77,307.18C493.52,305.43 489.16,304.00 488.08,304.00C487.00,304.00 485.86,304.42 485.54,304.93C485.23,305.44 485.97,306.57 487.21,307.43C488.44,308.29 490.50,309.00 491.79,309.00C493.08,309.00 495.00,309.47 496.07,310.04C497.13,310.60 498.00,311.49 498.00,312.01C498.00,312.59 497.01,312.57 495.43,311.98C494.02,311.44 491.87,311.00 490.66,311.00C489.44,311.00 487.67,311.90 486.73,313.00C485.79,314.10 484.16,315.00 483.12,315.00C481.92,315.00 480.98,315.93 480.59,317.51C480.24,318.89 478.05,321.41 475.73,323.10C473.40,324.80 468.49,327.71 464.81,329.58C461.13,331.44 456.10,333.42 453.64,333.97C451.17,334.52 442.03,335.03 433.33,335.10C419.72,335.21 415.83,334.87 405.55,332.64C398.38,331.08 393.28,329.46 392.79,328.59C392.22,327.57 390.96,327.29 388.61,327.68C386.05,328.09 384.07,327.54 380.38,325.38C376.91,323.35 373.59,322.36 368.74,321.91C365.01,321.57 361.66,321.00 361.31,320.64C360.95,320.28 361.75,318.83 363.08,317.41C364.41,315.99 369.21,313.05 373.75,310.88C378.29,308.72 382.00,306.76 382.00,306.54C382.00,306.32 380.76,306.50 379.24,306.93C377.72,307.37 374.24,308.85 371.49,310.22C368.75,311.60 364.25,313.43 361.50,314.29C358.75,315.15 354.99,316.16 353.15,316.53C350.08,317.15 349.86,317.03 350.47,315.10C350.90,313.75 350.67,312.84 349.82,312.58C349.09,312.35 347.26,311.90 345.75,311.56C344.24,311.23 343.00,310.50 343.00,309.93C343.00,309.36 345.36,307.81 348.25,306.50C351.62,304.97 357.78,303.55 365.46,302.56C372.04,301.70 379.55,301.00 382.15,301.00C384.75,301.00 387.12,301.39 387.42,301.87C387.72,302.35 389.43,303.05 391.23,303.43C394.50,304.12 394.50,304.12 389.69,305.99C387.05,307.01 384.24,308.39 383.44,309.05C382.65,309.71 382.00,310.59 382.00,311.02C382.00,311.44 384.93,312.96 388.51,314.39C392.09,315.83 395.69,317.00 396.51,317.00C397.41,317.00 398.00,317.94 398.00,319.39C398.00,321.59 398.41,321.78 403.25,321.86C406.14,321.91 413.54,322.18 419.69,322.46C425.85,322.73 431.25,323.02 431.69,323.10C432.14,323.18 433.23,323.18 434.11,323.12C435.00,323.05 436.91,321.81 438.36,320.36C440.49,318.24 441.00,316.78 441.00,312.88C441.00,308.03 441.00,308.03 435.75,305.40C432.86,303.96 429.03,301.67 427.24,300.33C425.44,298.98 422.85,295.67 421.49,292.97C419.98,290.00 419.00,286.36 419.00,283.76C419.00,281.38 419.70,278.44 420.56,277.22C421.41,276.00 422.81,275.00 423.67,275.00C424.89,275.00 425.09,275.72 424.59,278.40C424.23,280.30 424.46,282.92 425.11,284.34C425.82,285.91 428.36,287.88 431.66,289.45C434.63,290.85 438.31,292.00 439.84,292.00C441.37,292.00 443.49,292.64 444.56,293.42C446.31,294.70 446.37,295.17 445.20,298.17C444.49,300.00 443.82,301.95 443.70,302.50C443.59,303.05 444.40,303.50 445.50,303.50C447.15,303.50 447.55,302.73 447.82,299.02C447.99,296.56 448.61,293.97 449.19,293.27C449.77,292.57 451.47,292.00 452.97,292.00C454.48,292.00 457.23,290.97 459.09,289.72C460.95,288.47 463.06,286.33 463.77,284.97C464.49,283.61 464.88,280.81 464.63,278.75C464.39,276.69 464.62,275.00 465.15,275.00C465.67,275.00 466.80,276.67 467.65,278.71C468.60,280.97 469.00,283.94 468.69,286.28C468.41,288.39 466.96,292.60 465.48,295.63C463.15,300.40 462.04,301.49 457.20,303.82C452.06,306.29 451.43,306.97 449.23,312.45C446.96,318.10 446.93,318.47 448.61,319.70C449.58,320.42 452.46,321.00 455.01,321.00C457.55,321.00 462.08,320.29 465.07,319.41C468.50,318.41 471.88,316.50 474.25,314.21C476.31,312.22 478.00,309.84 478.00,308.92C478.00,308.00 478.68,306.68 479.50,306.00C480.32,305.32 481.00,303.26 481.00,301.44C481.00,299.61 481.46,297.83 482.03,297.48C482.59,297.13 483.07,295.42 483.09,293.67C483.11,291.93 483.21,288.02 483.31,285.00C483.50,279.50 483.50,279.50 489.50,279.26C492.80,279.13 500.54,278.56 506.71,278.00C512.87,277.43 518.72,276.66 519.71,276.28C521.26,275.69 521.16,275.50 519.00,274.90C517.62,274.51 510.97,274.15 504.22,274.10C495.42,274.03 490.93,274.42 488.38,275.49C485.98,276.49 484.25,276.67 483.08,276.04C482.12,275.53 480.78,274.44 480.10,273.62C479.23,272.57 479.16,271.57 479.87,270.25C480.42,269.22 486.41,265.64 493.19,262.30C499.96,258.97 506.36,255.28 507.41,254.11C508.46,252.94 509.05,251.72 508.73,251.39C508.40,251.07 506.42,251.36 504.32,252.04C502.22,252.72 497.12,255.08 493.00,257.30C488.88,259.51 484.15,262.30 482.50,263.51C480.85,264.72 478.49,266.03 477.25,266.42C475.62,266.94 475.00,266.73 475.00,265.68C475.00,264.88 477.85,261.56 481.34,258.30C485.26,254.63 491.20,250.55 496.90,247.60C501.97,244.99 506.38,242.18 506.69,241.38C506.99,240.57 507.00,239.66 506.69,239.36C506.38,239.05 504.59,239.31 502.71,239.93C500.83,240.55 495.39,244.19 490.62,248.02C485.85,251.85 480.49,255.71 478.72,256.60C476.95,257.50 474.26,259.39 472.75,260.80C471.24,262.22 469.99,263.18 469.98,262.94C469.97,262.70 469.79,257.32 469.59,251.00C469.38,244.68 468.47,236.35 467.57,232.50C466.67,228.65 463.98,219.43 461.60,212.00C459.23,204.57 456.87,196.96 456.37,195.08C455.88,193.20 454.85,191.45 454.09,191.20C452.95,190.82 452.83,192.52 453.41,201.15C453.79,206.88 453.81,212.34 453.45,213.28C453.08,214.23 452.39,215.00 451.91,215.00C451.43,215.00 448.92,210.61 446.34,205.25C441.68,195.57 441.64,195.52 440.80,198.75C440.33,200.54 439.62,202.01 439.22,202.02C438.82,202.02 436.83,200.11 434.78,197.77C431.06,193.50 431.06,193.50 431.03,198.25C431.01,200.86 430.59,203.00 430.08,203.00C429.58,203.00 428.19,201.43 427.00,199.50C425.81,197.58 424.42,196.00 423.92,196.00C423.41,196.00 423.00,197.35 423.00,199.00C423.00,201.32 422.55,202.00 421.03,202.00C419.95,202.00 417.53,200.65 415.65,199.00C413.77,197.35 411.97,196.00 411.64,196.00C411.31,196.00 411.09,198.27 411.15,201.04C411.21,203.80 410.97,206.36 410.62,206.72C410.26,207.07 408.49,205.93 406.69,204.18C404.88,202.43 402.82,201.00 402.11,201.00C401.40,201.00 399.98,199.99 398.94,198.75C397.07,196.50 397.07,196.50 397.03,201.29C397.01,203.93 397.71,209.55 398.57,213.79C399.48,218.29 402.42,226.45 405.62,233.37C408.63,239.89 410.90,245.43 410.66,245.67C410.42,245.91 407.62,243.16 404.44,239.56C401.26,235.96 398.46,233.21 398.22,233.45C397.98,233.68 399.46,237.39 401.50,241.69C403.55,245.99 405.62,250.55 406.12,251.83C406.61,253.12 406.76,254.58 406.45,255.09C406.11,255.62 404.97,255.53 403.69,254.86C402.49,254.22 399.36,251.93 396.75,249.76C394.14,247.59 392.00,246.12 392.00,246.50C392.00,246.88 394.52,249.96 397.61,253.34C400.70,256.73 403.91,260.53 404.75,261.78C405.58,263.04 405.99,264.35 405.64,264.70C405.29,265.04 402.19,264.08 398.75,262.55C395.31,261.03 388.68,258.22 384.00,256.32C379.32,254.42 374.00,252.10 372.17,251.18C370.33,250.26 368.61,249.14 368.33,248.71C368.05,248.27 368.34,247.30 368.96,246.55C369.81,245.52 369.80,244.99 368.91,244.44C368.25,244.04 364.74,243.15 361.11,242.47C357.47,241.79 349.34,240.02 343.03,238.54C336.73,237.05 330.46,235.26 329.11,234.55C326.66,233.27 326.66,233.27 330.39,232.04C333.75,230.93 334.06,230.54 333.51,228.06C333.11,226.22 333.42,224.90 334.46,224.04C335.30,223.33 336.00,221.91 336.00,220.88C336.00,219.35 335.25,219.00 331.95,219.00C329.72,219.00 326.57,219.69 324.95,220.53C323.33,221.36 322.00,222.49 322.00,223.03C322.00,223.56 322.45,224.00 323.00,224.00C323.55,224.00 324.00,224.45 324.00,225.01C324.00,225.56 322.22,227.25 320.04,228.76C317.86,230.27 316.06,231.78 316.04,232.13C316.02,232.47 318.21,233.71 320.92,234.87C323.63,236.03 328.24,237.48 331.17,238.09C334.10,238.70 340.93,241.20 346.35,243.66C351.77,246.12 360.09,249.49 364.85,251.15C369.61,252.81 377.18,256.22 381.68,258.72C386.17,261.23 391.78,265.24 394.14,267.64C397.60,271.17 398.04,272.00 396.46,271.99C395.38,271.99 391.57,271.07 388.00,269.96C384.43,268.84 373.62,265.90 364.00,263.42C354.27,260.91 342.89,258.64 338.37,258.31C333.91,257.99 329.00,258.03 327.48,258.42C325.87,258.82 325.09,259.48 325.61,259.99C326.10,260.47 334.47,262.03 344.22,263.45C353.96,264.88 365.88,267.18 370.72,268.58C375.55,269.97 381.98,272.26 385.00,273.65C390.27,276.09 390.40,276.24 388.01,277.15C386.42,277.77 381.75,277.75 375.01,277.11C369.23,276.55 358.65,275.86 351.50,275.58C344.35,275.29 329.73,275.41 319.00,275.86C303.18,276.51 298.79,277.02 295.75,278.52C293.69,279.54 292.00,281.00 292.00,281.78C292.00,282.55 292.92,283.43 294.05,283.72C295.75,284.17 295.99,284.78 295.44,287.25C295.00,289.28 295.22,290.53 296.14,291.11C296.89,291.58 299.19,291.98 301.25,291.98C303.31,291.99 305.00,292.47 305.00,293.05C305.00,293.62 303.65,294.86 302.01,295.80C300.36,296.73 299.01,298.05 299.01,298.73C299.00,299.40 300.08,300.66 301.40,301.52C302.71,302.39 304.02,303.97 304.30,305.05C304.63,306.32 305.67,307.00 307.28,307.00C308.64,307.00 310.31,307.67 310.99,308.49C312.02,309.72 311.68,310.50 309.04,312.97C307.28,314.61 304.19,316.41 302.17,316.97C300.15,317.53 296.59,317.99 294.25,317.99C291.91,318.00 290.01,317.66 290.02,317.25C290.03,316.84 290.92,315.38 292.00,314.00C293.08,312.62 293.97,310.94 293.98,310.26C293.99,309.58 292.37,308.35 290.38,307.51C288.39,306.68 285.50,306.00 283.96,306.00C282.42,306.00 279.10,306.88 276.58,307.96C274.06,309.04 272.00,310.18 272.00,310.48C272.00,310.78 272.54,311.90 273.21,312.96C274.27,314.66 273.70,315.64 268.46,321.19C262.50,327.50 262.50,327.50 266.75,327.81C269.09,327.98 271.00,328.43 271.00,328.81C270.99,329.19 269.65,331.52 268.00,334.00C266.35,336.48 265.01,339.09 265.00,339.82C265.00,340.68 265.69,340.92 267.00,340.50C268.42,340.05 269.00,340.32 269.00,341.42C269.00,342.28 266.98,345.94 264.50,349.55C262.03,353.17 260.00,356.52 260.00,357.00C260.00,357.49 260.47,358.17 261.04,358.53C261.62,358.88 262.74,358.63 263.54,357.96C264.34,357.30 265.00,357.05 265.00,357.41C265.00,357.77 264.27,359.18 263.38,360.54C261.81,362.93 261.84,363.00 264.33,363.00C265.73,363.00 267.13,363.41 267.44,363.91C267.75,364.41 267.11,367.67 266.01,371.16C264.92,374.65 264.02,380.09 264.01,383.25C264.01,386.41 264.31,389.00 264.70,389.00C265.08,389.00 266.65,387.80 268.18,386.32C269.72,384.85 271.28,383.94 271.64,384.31C272.00,384.67 271.78,388.10 271.15,391.93C270.52,395.75 270.00,400.68 270.00,402.88C270.00,405.08 270.48,407.18 271.06,407.54C271.65,407.90 272.97,407.43 274.00,406.50C275.03,405.57 276.29,405.06 276.80,405.38C277.32,405.70 277.97,408.01 278.25,410.52C278.68,414.35 279.52,415.79 283.51,419.56C288.25,424.04 288.25,424.04 292.55,420.51C296.59,417.20 296.90,417.11 297.50,418.99C297.85,420.10 298.67,420.99 299.32,420.98C299.97,420.97 301.62,420.08 303.00,419.00C304.38,417.92 305.84,417.03 306.25,417.02C306.66,417.01 307.00,417.90 307.00,419.00C307.00,420.10 307.50,421.00 308.11,421.00C308.71,421.00 310.55,419.88 312.18,418.50C313.82,417.12 315.79,416.00 316.58,416.00C317.36,416.00 318.00,416.68 318.00,417.50C318.00,418.32 318.34,419.00 318.75,419.00C319.16,419.00 323.70,416.89 328.83,414.31C336.68,410.36 338.46,409.80 340.06,410.80C341.70,411.83 342.16,411.59 343.52,408.96C344.92,406.26 345.45,405.99 348.39,406.54C351.19,407.07 352.21,406.66 355.23,403.82C357.24,401.92 359.33,398.64 360.05,396.23C360.75,393.90 361.05,391.71 360.71,391.38C360.37,391.04 355.69,391.28 350.30,391.92C344.91,392.56 335.32,392.95 329.00,392.79C317.50,392.50 317.50,392.50 308.61,396.77C303.71,399.12 299.50,400.84 299.25,400.58C298.99,400.32 301.08,397.68 303.89,394.71C306.70,391.74 309.00,389.01 309.00,388.65C309.00,388.29 307.31,387.99 305.25,387.98C302.53,387.97 301.91,387.71 302.98,387.03C303.79,386.52 307.17,385.42 310.48,384.59C313.79,383.77 317.70,382.85 319.16,382.55C321.75,382.02 321.80,381.88 321.27,376.01C320.72,370.01 320.72,370.01 323.84,371.10C325.56,371.69 328.13,373.60 329.55,375.34C330.98,377.08 333.12,380.04 334.32,381.93C335.59,383.92 337.76,385.73 339.50,386.23C341.15,386.71 346.27,386.83 350.88,386.49C355.49,386.15 361.79,384.93 364.88,383.78C369.25,382.16 372.19,379.97 378.08,373.96C385.09,366.81 386.12,366.13 391.58,365.00C394.84,364.33 398.10,363.61 398.84,363.39C399.83,363.10 399.99,361.90 399.47,358.75C399.09,356.41 398.61,354.23 398.42,353.91C398.23,353.58 392.10,353.03 384.79,352.69C377.48,352.35 367.58,351.38 362.79,350.54C357.99,349.69 352.59,348.38 350.79,347.62C348.98,346.85 343.90,345.25 339.50,344.05C335.10,342.86 329.89,340.83 327.93,339.55C325.97,338.26 321.47,335.76 317.93,333.97C314.39,332.19 310.25,329.69 308.72,328.41C307.19,327.13 304.38,325.79 302.47,325.43C300.56,325.07 299.00,324.41 299.00,323.97C299.00,323.52 300.76,321.65 302.91,319.81C305.06,317.97 308.89,315.91 311.42,315.23C313.96,314.55 316.75,314.00 317.64,314.00C318.95,314.00 319.02,314.28 318.01,315.49C317.33,316.31 317.01,317.60 317.31,318.36C317.60,319.11 320.76,321.37 324.33,323.37C327.90,325.37 331.54,327.00 332.42,327.00C333.30,327.00 334.80,327.92 335.76,329.05C336.72,330.18 339.40,331.95 341.72,332.99C344.05,334.02 349.45,335.83 353.72,337.00C358.00,338.18 364.65,339.40 368.50,339.70C372.35,340.01 376.19,340.86 377.03,341.59C377.87,342.32 381.86,343.43 385.90,344.05C389.94,344.68 394.65,344.97 396.37,344.69C398.09,344.42 402.11,343.26 405.31,342.13C410.51,340.28 412.64,340.12 425.81,340.62C433.89,340.93 443.19,341.83 446.49,342.63C449.78,343.43 453.49,344.75 454.74,345.56C455.98,346.38 457.00,347.94 457.00,349.04C457.00,350.14 455.91,353.17 454.57,355.77C453.24,358.37 451.47,362.85 450.63,365.73C449.57,369.39 449.44,371.16 450.20,371.63C450.80,371.99 453.81,372.57 456.89,372.90C462.22,373.47 462.52,373.65 462.85,376.50C463.04,378.15 462.22,386.93 461.03,396.00C459.84,405.07 458.44,414.16 457.91,416.19C457.06,419.48 456.36,420.10 451.30,421.99C448.18,423.16 442.78,424.38 439.28,424.70C435.79,425.03 432.71,425.66 432.44,426.10C432.17,426.54 432.86,429.49 433.97,432.66C435.09,435.84 436.00,440.06 436.00,442.05C436.00,445.02 435.27,446.33 431.93,449.33C428.64,452.28 427.99,453.41 428.57,455.24C428.96,456.48 431.11,460.19 433.34,463.49C435.57,466.78 437.99,471.19 438.71,473.28C439.43,475.37 439.74,478.30 439.41,479.79C439.07,481.28 437.21,485.96 435.27,490.19C433.33,494.42 431.98,498.51 432.28,499.28C432.70,500.39 437.47,500.81 455.66,501.33C468.22,501.69 484.35,502.68 491.50,503.52C498.65,504.37 506.98,505.68 510.00,506.42C513.02,507.17 516.47,507.83 517.66,507.89zM427.24,499.75C427.91,499.53 428.78,498.03 429.17,496.42C429.55,494.81 430.61,490.05 431.53,485.83C432.48,481.44 432.91,476.85 432.52,475.09C432.15,473.40 431.43,471.77 430.92,471.45C430.41,471.13 428.65,473.77 427.02,477.30C425.38,480.84 423.95,485.03 423.84,486.61C423.73,488.20 423.72,490.76 423.82,492.31C423.92,493.89 424.44,494.85 425.00,494.50C425.59,494.14 426.00,495.18 426.00,497.02C426.00,499.07 426.43,500.02 427.24,499.75zM420.35,497.90C420.82,497.51 420.90,495.81 420.52,494.11C420.15,492.41 419.47,490.79 419.01,490.51C418.56,490.23 417.50,490.25 416.67,490.57C415.84,490.89 414.88,491.86 414.55,492.72C414.22,493.58 414.21,495.09 414.52,496.08C414.84,497.07 416.09,498.04 417.30,498.24C418.51,498.44 419.88,498.29 420.35,497.90zM257.47,476.00C258.16,476.00 260.25,474.97 262.11,473.71C263.97,472.45 266.11,471.04 266.86,470.58C267.90,469.94 268.06,470.25 267.54,471.87C267.08,473.31 267.29,473.99 268.18,473.98C268.91,473.97 271.34,473.12 273.58,472.10C275.83,471.08 277.71,469.63 277.76,468.87C277.81,468.12 278.14,466.59 278.48,465.48C279.00,463.82 278.26,463.02 274.31,461.01C271.66,459.66 268.45,458.68 267.17,458.83C265.22,459.06 264.94,458.76 265.49,457.04C265.97,455.53 265.34,454.26 263.11,452.24C261.45,450.73 258.35,448.06 256.23,446.30C252.37,443.10 252.37,443.10 249.22,445.01C247.45,446.09 244.96,449.12 243.54,451.93C242.14,454.68 241.00,457.90 241.00,459.08C241.00,460.98 241.39,461.15 244.46,460.57C247.91,459.93 247.91,459.93 247.32,464.96C246.84,468.96 247.02,470.00 248.16,470.00C248.96,470.00 251.52,468.60 253.85,466.88C256.18,465.16 258.38,464.04 258.72,464.39C259.07,464.74 258.37,466.77 257.17,468.91C255.97,471.05 255.26,473.52 255.60,474.40C255.94,475.28 256.78,476.00 257.47,476.00zM407.62,466.00C406.37,466.00 404.32,464.90 403.05,463.56C401.36,461.75 400.92,460.44 401.40,458.56C401.80,456.95 402.74,456.00 403.91,456.00C404.94,456.00 406.05,456.68 406.36,457.50C406.68,458.32 407.63,459.00 408.47,459.00C409.31,459.00 410.00,458.27 410.00,457.38C410.00,456.05 410.27,455.98 411.50,457.00C412.32,457.68 413.00,458.99 413.00,459.90C413.00,460.81 412.30,462.56 411.44,463.78C410.59,465.00 408.87,466.00 407.62,466.00zM242.25,445.98C242.94,445.98 244.08,445.60 244.79,445.15C245.49,444.71 246.33,442.75 246.64,440.81C247.14,437.74 246.92,437.21 244.90,436.68C243.63,436.35 242.34,436.35 242.04,436.68C241.74,437.01 242.06,437.47 242.74,437.72C243.68,438.05 243.63,438.82 242.49,441.03C241.67,442.61 241.00,444.37 241.00,444.95C241.00,445.53 241.56,445.99 242.25,445.98zM426.62,446.00C426.74,446.00 427.77,444.48 428.92,442.63C430.06,440.78 431.00,438.30 431.00,437.13C431.00,435.96 430.44,435.00 429.75,435.01C429.06,435.01 427.49,436.50 426.25,438.32C425.01,440.14 424.00,442.07 424.00,442.61C424.00,443.16 424.54,444.14 425.20,444.80C425.86,445.46 426.50,446.00 426.62,446.00zM428.44,420.69C429.02,420.50 429.64,419.36 429.82,418.17C430.02,416.83 429.49,415.74 428.44,415.34C427.50,414.98 425.94,415.18 424.96,415.79C423.98,416.40 421.59,416.64 419.63,416.33C417.68,416.01 415.32,416.05 414.38,416.41C413.14,416.88 412.97,417.37 413.76,418.16C414.36,418.76 417.42,419.40 420.55,419.58C423.68,419.76 426.50,420.16 426.81,420.48C427.12,420.79 427.85,420.88 428.44,420.69zM451.97,414.00C453.42,414.00 453.81,412.67 454.35,405.75C454.70,401.21 454.99,394.20 454.99,390.17C455.00,384.75 454.67,382.94 453.75,383.24C453.06,383.47 451.74,385.98 450.82,388.83C449.89,391.69 448.18,395.23 447.01,396.71C444.90,399.39 444.90,399.42 446.87,400.95C448.23,402.02 449.06,404.29 449.54,408.25C450.08,412.78 450.60,414.00 451.97,414.00zM435.06,407.93C437.57,407.97 440.45,407.39 441.46,406.65C442.48,405.91 443.02,404.85 442.68,404.29C442.34,403.74 439.15,402.98 435.60,402.62C432.05,402.26 427.55,401.29 425.59,400.47C423.63,399.66 420.11,398.95 417.77,398.90C415.42,398.85 409.23,397.64 404.00,396.22C398.77,394.80 393.84,393.05 393.04,392.32C391.75,391.16 391.77,390.80 393.18,389.39C394.63,387.95 395.91,387.91 405.45,389.04C412.43,389.87 416.44,389.96 417.08,389.32C417.62,388.78 417.78,387.60 417.44,386.71C417.10,385.81 416.07,384.85 415.16,384.57C414.25,384.28 408.81,383.15 403.07,382.05C397.33,380.94 392.24,379.64 391.76,379.16C391.24,378.64 391.56,377.58 392.51,376.64C393.76,375.39 396.09,375.00 402.38,375.00C407.84,375.00 411.26,374.53 412.52,373.61C414.21,372.38 414.26,372.02 412.98,370.47C411.70,368.94 410.18,368.79 400.51,369.27C394.46,369.57 388.28,370.37 386.79,371.05C385.30,371.73 382.88,374.13 381.41,376.39C379.94,378.65 377.79,381.55 376.62,382.84C375.45,384.12 372.93,385.83 371.01,386.64C369.10,387.44 366.51,389.05 365.26,390.22C364.02,391.39 363.00,393.52 363.00,394.95C363.00,396.38 364.37,399.20 366.04,401.23C368.04,403.65 370.25,405.14 372.48,405.56C374.34,405.91 377.47,405.67 379.43,405.02C381.39,404.38 383.56,403.07 384.25,402.11C384.94,401.16 386.01,400.07 386.63,399.70C387.26,399.33 390.36,399.92 393.54,401.01C397.26,402.29 402.01,403.01 406.91,403.03C411.63,403.05 415.16,403.57 416.25,404.39C417.21,405.12 419.01,405.54 420.25,405.31C421.49,405.08 424.30,405.56 426.50,406.38C428.70,407.19 432.55,407.89 435.06,407.93zM434.75,385.59C437.78,385.54 440.00,385.04 440.00,384.42C440.00,383.83 435.54,381.21 430.09,378.59C424.52,375.92 419.15,373.98 417.84,374.17C415.94,374.44 415.44,375.19 415.19,378.22C414.91,381.59 415.14,381.99 417.69,382.50C419.24,382.82 422.52,383.66 425.00,384.38C427.48,385.09 431.86,385.64 434.75,385.59zM426.30,369.00C426.84,369.00 427.05,366.85 426.78,364.05C426.30,359.11 426.30,359.11 431.90,358.43C434.98,358.05 440.62,356.99 444.44,356.07C448.25,355.14 451.54,353.87 451.75,353.24C452.03,352.40 447.59,352.09 435.49,352.11C426.33,352.12 415.27,351.81 410.92,351.43C405.57,350.97 403.00,351.09 403.00,351.80C403.00,352.39 404.01,353.18 405.25,353.57C406.49,353.95 407.73,354.62 408.01,355.06C408.29,355.49 410.96,356.46 413.95,357.22C418.57,358.39 419.50,359.02 420.14,361.43C420.56,362.99 421.90,365.33 423.12,366.63C424.35,367.93 425.78,369.00 426.30,369.00zM336.50,307.35C334.85,307.63 331.70,307.24 329.50,306.49C327.30,305.73 323.54,304.60 321.15,303.99C316.86,302.88 316.83,302.85 318.65,300.83C319.67,299.71 321.64,298.20 323.04,297.48C324.44,296.76 329.84,295.04 335.04,293.67C340.24,292.30 347.74,290.69 351.69,290.09C355.65,289.49 363.52,289.01 369.19,289.02C377.42,289.04 380.41,289.46 384.00,291.09C388.50,293.14 388.50,293.14 386.00,294.52C384.62,295.28 381.48,296.17 379.00,296.51C376.52,296.84 370.90,298.02 366.50,299.13C362.10,300.24 354.23,302.43 349.00,303.99C343.77,305.55 338.15,307.06 336.50,307.35zM316.18,293.92C314.70,293.88 312.26,293.39 310.75,292.84C309.24,292.29 308.00,291.21 308.00,290.45C308.00,289.68 306.65,288.06 305.00,286.84C303.35,285.62 302.00,284.01 302.00,283.26C302.00,282.51 303.46,281.29 305.25,280.55C307.04,279.81 312.55,278.71 317.50,278.10C322.45,277.50 330.77,277.01 336.00,277.01C341.23,277.02 352.48,277.70 361.00,278.52C369.52,279.34 378.07,280.30 379.99,280.66C381.91,281.02 385.45,282.31 387.86,283.53C392.24,285.75 392.24,285.75 373.37,286.27C357.64,286.69 352.84,287.20 344.50,289.31C339.00,290.70 330.98,292.32 326.68,292.92C322.38,293.51 317.65,293.96 316.18,293.92zM504.00,290.92C509.77,290.95 515.14,290.56 515.92,290.07C516.98,289.40 516.33,288.90 513.42,288.14C511.26,287.58 505.90,286.60 501.50,285.96C495.63,285.10 492.75,285.08 490.69,285.89C489.11,286.52 488.17,287.46 488.54,288.07C488.91,288.66 490.17,289.53 491.35,290.01C492.53,290.48 498.23,290.89 504.00,290.92zM493.10,267.98C493.87,267.97 498.77,266.73 503.98,265.23C509.19,263.73 513.24,262.05 512.98,261.50C512.72,260.95 511.15,260.64 509.50,260.81C507.85,260.98 503.93,261.82 500.80,262.68C497.66,263.54 494.33,265.08 493.39,266.12C492.06,267.59 492.00,268.00 493.10,267.98zM360.75,256.88C362.54,256.95 364.00,256.79 364.00,256.52C364.00,256.26 361.98,255.13 359.51,254.00C357.04,252.88 349.28,251.11 342.26,250.08C335.24,249.05 325.23,247.68 320.00,247.03C314.77,246.39 307.35,245.42 303.50,244.89C299.65,244.35 294.81,243.41 292.75,242.80C290.69,242.19 289.00,241.22 289.00,240.66C289.00,240.10 290.46,238.38 292.25,236.83C295.41,234.10 295.44,233.98 293.56,232.51C292.49,231.68 290.96,231.00 290.15,231.00C289.34,231.00 286.28,229.15 283.34,226.88C280.40,224.61 278.00,222.45 278.00,222.08C278.00,221.71 282.29,221.60 287.54,221.82C294.83,222.14 298.11,221.85 301.46,220.57C303.87,219.65 306.41,218.21 307.11,217.37C308.13,216.14 308.12,215.69 307.08,215.05C306.37,214.61 303.72,214.21 301.19,214.16C297.82,214.09 295.54,213.30 292.63,211.19C290.45,209.61 288.34,207.44 287.94,206.36C287.34,204.73 287.69,204.37 290.07,204.19C291.64,204.07 294.86,204.41 297.21,204.94C299.84,205.53 301.86,205.54 302.43,204.97C302.99,204.41 302.61,203.22 301.43,201.91C300.37,200.74 296.21,197.87 292.18,195.54C284.86,191.29 284.86,191.29 289.56,190.65C292.14,190.29 296.02,189.47 298.18,188.83C301.29,187.90 302.03,187.23 301.80,185.58C301.59,184.11 300.23,183.10 297.18,182.13C292.87,180.77 292.87,180.77 295.04,178.46C296.23,177.19 296.89,175.63 296.50,174.99C296.10,174.36 294.37,172.98 292.64,171.92C289.50,170.01 289.50,170.01 292.75,170.00C294.54,170.00 296.00,169.59 296.00,169.10C296.00,168.60 294.31,166.82 292.25,165.13C288.95,162.44 288.76,162.06 290.69,162.03C291.90,162.02 293.11,161.62 293.40,161.16C293.68,160.70 293.20,159.31 292.33,158.06C291.45,156.81 289.24,155.16 287.40,154.39C285.57,153.63 282.42,153.00 280.41,153.00C277.29,153.00 276.94,152.78 277.99,151.51C279.00,150.30 278.90,149.90 277.46,149.35C276.49,148.97 273.69,149.20 271.24,149.86C268.79,150.51 264.85,152.38 262.48,154.01C260.12,155.64 256.62,158.80 254.70,161.03C252.79,163.26 249.79,167.80 248.03,171.10C246.27,174.40 244.30,176.92 243.66,176.70C242.94,176.44 242.58,174.32 242.72,171.10C242.84,168.25 243.82,163.93 244.90,161.49C245.98,159.06 248.99,154.79 251.59,152.01C254.55,148.84 258.77,145.78 262.86,143.83C267.43,141.65 271.41,140.56 276.03,140.23C280.55,139.91 284.51,140.30 288.52,141.46C291.74,142.40 296.28,144.47 298.59,146.06C300.90,147.65 304.17,150.69 305.85,152.81C307.53,154.94 311.16,161.37 313.91,167.12C316.66,172.87 320.06,178.64 321.45,179.96C322.85,181.27 324.30,182.03 324.68,181.65C325.06,181.28 324.94,177.90 324.42,174.14C323.56,167.90 323.63,167.35 325.21,167.77C326.36,168.07 327.34,167.34 328.13,165.61C328.79,164.17 329.63,163.00 330.01,163.00C330.38,163.00 331.40,163.79 332.28,164.75C333.15,165.72 334.34,167.78 334.94,169.33C335.53,170.89 336.57,171.98 337.26,171.75C337.94,171.53 338.64,169.43 338.81,167.09C339.00,164.48 338.53,161.94 337.60,160.51C336.76,159.23 334.37,157.63 332.29,156.95C330.20,156.28 326.80,154.87 324.72,153.83C322.65,152.79 318.50,149.72 315.51,147.01C312.53,144.31 308.64,141.35 306.88,140.44C305.12,139.53 301.25,137.95 298.29,136.93C295.33,135.91 289.66,134.79 285.70,134.43C280.42,133.96 276.76,134.24 272.00,135.49C268.43,136.42 263.04,138.38 260.03,139.84C257.03,141.30 251.95,145.05 248.76,148.17C244.91,151.93 241.97,155.99 240.07,160.19C238.49,163.68 236.64,169.34 235.96,172.78C235.17,176.80 234.93,183.56 235.28,191.76C235.64,200.46 236.50,206.88 237.98,212.00C239.17,216.12 241.45,221.79 243.05,224.59C244.65,227.38 247.80,231.76 250.05,234.32C252.59,237.20 256.48,240.08 260.32,241.90C263.72,243.52 268.07,245.12 270.00,245.46C271.93,245.80 282.50,246.49 293.50,247.00C310.87,247.81 316.39,248.51 335.50,252.35C347.60,254.78 358.96,256.82 360.75,256.88zM482.59,243.35C484.74,241.67 487.40,239.82 488.51,239.24C489.62,238.66 491.69,238.41 493.12,238.68C494.98,239.04 495.91,238.68 496.39,237.42C496.76,236.46 496.59,235.19 496.01,234.61C495.43,234.03 491.60,233.43 487.50,233.26C480.04,232.96 480.04,232.96 480.13,236.73C480.18,238.80 479.87,241.83 479.45,243.46C478.69,246.42 478.69,246.42 482.59,243.35zM368.43,212.56C370.10,212.23 372.12,211.30 372.92,210.51C374.18,209.25 374.13,208.80 372.53,207.03C371.50,205.89 369.43,205.00 367.82,205.00C365.75,205.00 364.65,205.68 363.83,207.47C362.96,209.38 363.01,210.31 364.05,211.56C364.99,212.70 366.28,212.99 368.43,212.56zM482.07,211.00C483.00,211.00 484.31,210.33 485.00,209.51C485.99,208.30 485.93,207.54 484.65,205.59C483.54,203.89 482.45,203.33 481.00,203.71C479.87,204.01 478.44,205.17 477.84,206.30C476.96,207.94 477.10,208.60 478.56,209.67C479.56,210.40 481.14,211.00 482.07,211.00zM381.82,207.67C382.00,206.75 381.10,204.10 379.82,201.79C378.55,199.47 376.06,196.60 374.29,195.42C372.52,194.23 371.36,192.97 371.71,192.63C372.05,192.28 373.14,192.00 374.13,192.00C375.12,192.00 377.45,193.33 379.31,194.97C381.17,196.60 383.77,199.97 385.09,202.47C386.41,204.96 387.83,207.00 388.25,207.00C388.66,207.00 389.00,206.07 389.00,204.94C389.00,203.81 389.43,203.15 389.95,203.47C390.47,203.79 391.37,203.17 391.95,202.09C392.53,201.01 393.00,198.04 393.00,195.49C393.00,192.30 392.19,189.47 390.39,186.41C388.96,183.96 386.82,181.44 385.64,180.80C384.46,180.17 381.93,179.52 380.00,179.36C378.07,179.19 374.59,178.77 372.25,178.43C368.89,177.92 368.00,178.10 368.00,179.26C368.00,180.24 366.13,181.10 362.33,181.86C359.21,182.49 355.83,183.75 354.83,184.66C353.82,185.57 353.00,186.88 353.00,187.59C353.00,188.29 352.10,189.15 351.00,189.50C349.90,189.85 349.00,190.61 349.00,191.19C349.00,191.88 350.15,191.98 352.25,191.48C354.04,191.06 356.85,190.77 358.50,190.83C360.15,190.89 363.42,191.67 365.76,192.56C368.10,193.44 369.75,194.59 369.44,195.10C369.12,195.61 368.42,195.76 367.87,195.42C367.33,195.09 365.77,195.09 364.40,195.44C363.04,195.78 362.19,196.50 362.52,197.03C362.85,197.56 364.55,198.00 366.31,198.00C368.06,198.01 370.91,198.87 372.63,199.92C374.36,200.97 377.06,203.52 378.63,205.59C380.78,208.40 381.58,208.93 381.82,207.67zM467.05,205.47C467.57,205.15 468.00,203.77 468.00,202.41C468.00,201.05 468.64,198.41 469.42,196.55C470.19,194.69 471.74,192.67 472.85,192.08C473.96,191.49 476.49,191.00 478.47,191.00C480.80,191.00 482.27,190.45 482.66,189.44C483.02,188.50 482.15,186.72 480.44,184.94C478.69,183.11 476.61,182.00 474.93,182.00C473.07,182.00 472.07,181.38 471.71,180.00C471.38,178.73 470.35,178.00 468.90,178.00C467.64,178.00 465.35,179.21 463.80,180.69C461.99,182.43 461.00,184.40 461.00,186.29C461.00,188.40 461.39,189.06 462.42,188.67C463.57,188.23 463.81,189.41 463.70,194.81C463.62,198.63 464.10,202.48 464.83,203.78C465.53,205.03 466.53,205.79 467.05,205.47zM487.75,199.23C488.44,198.98 489.00,198.21 489.00,197.52C489.00,196.82 488.35,195.71 487.56,195.05C486.76,194.39 485.07,193.99 483.81,194.17C482.30,194.39 481.50,195.17 481.50,196.45C481.50,197.71 482.40,198.64 484.00,199.04C485.38,199.38 487.06,199.47 487.75,199.23zM484.64,178.00C485.36,178.00 486.61,176.99 487.40,175.75C488.20,174.51 489.83,170.57 491.04,167.00C492.83,161.68 493.12,159.12 492.66,152.90C492.34,148.72 491.15,142.80 490.00,139.73C488.67,136.16 486.49,132.87 483.95,130.58C480.87,127.79 479.15,127.00 476.17,127.00C473.40,127.00 471.71,127.68 470.03,129.46C467.87,131.77 467.75,132.52 468.24,141.04C468.52,146.06 469.26,150.66 469.87,151.27C470.68,152.08 471.65,151.74 473.48,150.02C474.86,148.72 476.25,147.92 476.57,148.23C476.88,148.55 477.36,152.34 477.63,156.65C477.95,161.70 479.05,166.91 480.72,171.25C482.15,174.96 483.91,178.00 484.64,178.00zM466.22,167.00C467.20,167.00 468.00,166.43 468.00,165.72C468.00,165.02 467.30,163.45 466.46,162.24C465.61,161.03 463.02,158.76 460.71,157.21C458.39,155.66 451.32,152.20 445.00,149.52C438.68,146.84 430.42,143.61 426.65,142.33C422.89,141.05 418.73,140.00 417.40,140.00C416.08,140.00 415.00,140.39 415.00,140.87C415.00,141.34 412.64,141.64 409.75,141.53C406.86,141.41 402.16,140.47 399.30,139.44C394.09,137.56 394.09,137.56 391.79,139.73C389.82,141.58 388.91,141.77 385.65,141.03C383.33,140.51 380.70,140.56 379.00,141.15C377.10,141.81 374.86,141.77 372.07,141.02C369.81,140.41 367.50,140.19 366.95,140.53C366.40,140.87 366.07,142.34 366.22,143.79C366.43,145.77 366.00,146.51 364.50,146.75C363.40,146.93 361.49,147.29 360.25,147.56C359.01,147.82 358.00,148.67 358.00,149.45C358.00,150.23 357.21,151.08 356.25,151.34C355.29,151.60 353.26,152.09 351.75,152.43C350.24,152.76 349.00,153.39 349.00,153.82C349.00,154.25 351.07,155.61 353.61,156.84C358.01,158.98 358.28,159.00 359.58,157.29C360.33,156.31 360.95,154.94 360.97,154.25C360.99,153.56 361.12,153.00 361.26,153.00C361.40,153.00 363.00,153.43 364.83,153.95C367.20,154.63 369.04,154.52 371.32,153.57C373.07,152.84 376.11,151.74 378.07,151.12C380.04,150.50 382.96,150.02 384.57,150.04C386.18,150.05 388.62,150.71 390.00,151.50C391.38,152.29 393.51,152.95 394.75,152.96C396.50,152.99 397.00,152.44 397.00,150.47C397.00,147.96 397.01,147.95 400.19,149.60C402.77,150.93 403.75,151.01 405.32,150.03C406.92,149.03 407.72,149.16 409.88,150.75C411.32,151.82 413.92,153.42 415.65,154.32C418.49,155.79 418.86,155.79 419.40,154.39C419.73,153.54 420.00,151.52 420.00,149.92C420.00,148.31 420.35,147.00 420.78,147.00C421.21,147.00 422.67,147.75 424.03,148.66C425.39,149.57 429.50,152.95 433.16,156.16C436.83,159.37 440.13,162.00 440.49,162.00C440.86,162.00 440.85,160.59 440.47,158.86C439.81,155.84 439.88,155.75 442.54,156.42C444.06,156.80 447.24,158.45 449.60,160.07C451.96,161.70 454.17,163.47 454.51,164.02C454.85,164.56 456.20,164.74 457.51,164.41C458.94,164.05 460.79,164.44 462.17,165.41C463.42,166.28 465.24,167.00 466.22,167.00zM344.51,161.39C345.88,160.03 347.00,158.30 347.00,157.56C347.00,156.82 346.32,155.95 345.49,155.64C344.66,155.32 342.86,155.48 341.49,156.00C340.12,156.52 339.00,157.54 339.00,158.25C339.00,158.97 339.68,160.53 340.51,161.72C342.03,163.88 342.03,163.88 344.51,161.39z" />

</svg>